<?xml version="1.0" encoding="utf-8"?>
<!-- Generator: Adobe Illustrator 18.1.0, SVG Export Plug-In . SVG Version: 6.00 Build 0)  -->
<!DOCTYPE svg PUBLIC "-//W3C//DTD SVG 1.1//EN" "http://www.w3.org/Graphics/SVG/1.1/DTD/svg11.dtd">
<svg version="1.1" xmlns="http://www.w3.org/2000/svg" xmlns:xlink="http://www.w3.org/1999/xlink" x="0px" y="0px"
	 viewBox="0 0 600 300" enable-background="new 0 0 600 300" xml:space="preserve">
<g id="boy">
	<g>
		<path id="corps_1_" fill="#ECE565" d="M271.6,139.5v-8.9h-8.7v-8.9h-8.7H254h-8.7v8.9h-8.5v-8.9h-8.7h-0.2h-8.7v8.9h-8.7v8.9h-8.7
			v8.9v8.9v8.9v8.9v8.9v8.9h8.9V184h8.5v8.9h8.9V184h8.5v8.9h8.9V184h8.5v8.9h8.9V184h8.5v8.9h8.9V184v-8.9v-8.9v-8.9v-8.9v-8.9
			H271.6z"/>
	</g>
	<rect id="bouche_1_" x="236.7" y="170.2" fill="#D43F8E" width="8.8" height="9.2"/>
	<g id="chapeau">
		<rect x="222.1" y="114.4" fill="#422A19" width="35.9" height="4.2"/>
		<rect x="227.3" y="105.4" fill="#422A19" width="26" height="9.3"/>
	</g>
	<g id="yeux_1_">
		<rect x="210.8" y="148.2" fill="#FFFFFF" width="17.1" height="18.2"/>
		<rect x="254.1" y="148.2" fill="#FFFFFF" width="17.1" height="18.2"/>
		<rect x="219.1" y="152.7" fill="#44AFC3" width="8.8" height="9.2"/>
		<rect x="262.5" y="152.7" fill="#44AFC3" width="8.8" height="9.2"/>
	</g>
</g>
<g id="girl">
	<g id="corps">
		<path fill="#44AFC3" d="M309.4,142.7c0-10.9,8.8-19.7,19.7-19.7s19.7,8.8,19.7,19.7"/>
		<path fill="#44AFC3" d="M348.5,142.3c0-10.9,8.8-19.7,19.7-19.7s19.7,8.8,19.7,19.7"/>
		<path fill="#44AFC3" d="M309.4,142v44.2h78.3V142H309.4z M330,160.7c-4.8,0-8.7-3.9-8.7-8.7c0-4.8,3.9-8.7,8.7-8.7
			c4.8,0,8.7,3.9,8.7,8.7C338.7,156.8,334.8,160.7,330,160.7z M368.8,160.7c-4.8,0-8.7-3.9-8.7-8.7c0-4.8,3.9-8.7,8.7-8.7
			c4.8,0,8.7,3.9,8.7,8.7C377.5,156.8,373.6,160.7,368.8,160.7z"/>
	</g>
	<g id="pattes">
		<path fill="#44AFC3" d="M320.4,186c-5,8-12.4,8.7-20.4,7l0,0l0,0l0,0c-0.2,0-0.4-0.1-0.5-0.2c-0.5-0.3-0.7-1-0.3-1.5
			c0.2-0.3,0.5-0.5,0.9-0.5l0,0c5.3-1,6.8-1,9.3-5"/>
		<path fill="#44AFC3" d="M338.9,186c-5,8-12.4,8.7-20.4,7l0,0l0,0l0,0c-0.2,0-0.4-0.1-0.5-0.2c-0.5-0.3-0.7-1-0.3-1.5
			c0.2-0.3,0.5-0.5,0.9-0.5l0,0c5.3-1,6.8-1,9.3-5"/>
		<path fill="#44AFC3" d="M339.7,184.9c4,8.5,11.2,10.2,19.3,9.5l0,0l0,0l0,0c0.2,0,0.4,0,0.5-0.1c0.5-0.3,0.8-0.9,0.5-1.5
			c-0.2-0.3-0.5-0.6-0.8-0.6l0,0c-5.1-1.6-6.6-1.8-8.6-6.2"/>
		<path fill="#44AFC3" d="M357.3,186c5,8,12.4,8.7,20.4,7l0,0l0,0l0,0c0.2,0,0.4-0.1,0.5-0.2c0.5-0.3,0.7-1,0.3-1.5
			c-0.2-0.3-0.5-0.5-0.9-0.5l0,0c-5.3-1-6.8-1-9.3-5"/>
		<path fill="#44AFC3" d="M376.7,186c5,8,12.4,8.7,20.4,7l0,0l0,0l0,0c0.2,0,0.4-0.1,0.5-0.2c0.5-0.3,0.7-1,0.3-1.5
			c-0.2-0.3-0.5-0.5-0.9-0.5l0,0c-5.3-1-6.8-1-9.3-5"/>
	</g>
	<g id="yeux">
		<circle fill="#ECE565" cx="326.9" cy="152.2" r="5.6"/>
		<circle fill="#ECE565" cx="365.8" cy="152.2" r="5.6"/>
		<path fill="#3BA7B8" d="M377.5,150c-5.4-2.9-14.4-2.7-17.4,0c-1.3,1,0.3-7.8,9.6-7.9C369.7,142.1,378.3,143.2,377.5,150z"/>
		<path fill="#3BA7B8" d="M321.4,150c5.4-2.9,14.4-2.7,17.4,0c1.3,1-0.3-7.8-9.6-7.9C329.2,142.1,320.6,143.2,321.4,150z"/>
		<path fill="#3A3935" d="M338.4,149.7c0,0-1.8-1.8-8.7-1.7c-6,0.1-7.9,2.1-7.9,2.1l-3.6,0.2c0,0,5.3-4.4,10.4-4.4
			C333.7,145.9,338.4,149.7,338.4,149.7z"/>
		<path fill="#3A3935" d="M360.5,149.8c0,0,2.8-2.2,8.8-1.5c6,0.7,8.2,2.1,8.2,2.1l3.2,0.2c0,0-5.3-4.4-10.4-4.4
			S360.5,149.8,360.5,149.8z"/>
	</g>
	<g id="bouche">
		<path fill="#D43F8E" d="M351.3,171.9c0,1.7-1.7,3-3.7,3c-2.1,0-3.7-1.4-3.7-3c0-1.7,1.6-1.2,3.6-1.2
			C349.6,170.6,351.3,170.2,351.3,171.9z"/>
		<ellipse fill="#D43F8E" cx="345.8" cy="170.6" rx="2.2" ry="2"/>
		<ellipse fill="#D43F8E" cx="349.2" cy="170.5" rx="2.2" ry="2"/>
	</g>
	<g id="noeud">
		<path fill="#CB3C8D" d="M359.9,118.8c-0.4,2.4,2.4,4.7,6.2,5.2c3.8,0.5,7.3-1.1,7.7-3.5c0.4-2.4-2.4-4.7-6.2-5.2
			S360.3,116.4,359.9,118.8z"/>
		<path fill="#CB3C8D" d="M388.4,125.3c-0.7,2.3-4.7,3-8.9,1.6c-4.2-1.4-6.9-4.5-6.2-6.8c0.7-2.3,4.7-3,8.9-1.6
			S389.1,123,388.4,125.3z"/>
		<path fill="#D43F8E" d="M359.7,112.4c-0.9,2.2,2.5,6.2,5.9,8c3.4,1.9,7,1.6,7.9-0.6c0.9-2.2-0.9-6.5-4.4-8.4
			C365.7,109.5,360.6,110.2,359.7,112.4z"/>
		<path fill="#D43F8E" d="M391,120.1c-0.2,2.4-5.4,3.8-9.8,3.8s-7.9-2-7.7-4.4c0.2-2.4,5.8-4.7,10.2-4.7S391.1,117.7,391,120.1z"/>
		<path fill="#C23B88" d="M377.6,120.2c-0.5,2.3-2,4-4.4,3.4c-2.4-0.6-2.8-2.4-2.3-4.7c0.5-2.3,1.9-4.1,4.2-3.6
			C377.6,115.9,378.1,117.9,377.6,120.2z"/>
	</g>
</g>
</svg>
