<?xml version="1.0" encoding="utf-8"?>
<!-- Generator: Adobe Illustrator 18.1.0, SVG Export Plug-In . SVG Version: 6.00 Build 0)  -->
<!DOCTYPE svg PUBLIC "-//W3C//DTD SVG 1.1//EN" "http://www.w3.org/Graphics/SVG/1.1/DTD/svg11.dtd">
<svg version="1.1" xmlns="http://www.w3.org/2000/svg" xmlns:xlink="http://www.w3.org/1999/xlink" x="0px" y="0px"
	 viewBox="0 0 600 300" enable-background="new 0 0 600 300" xml:space="preserve">
<g id="fond">
	<g id="lune">
		<path fill="#F7EB5A" d="M246,33c0,0-32.2,0.6-38,21.8c-7.7,28.2,4.9,43,27.5,53.5c0,0-20.4-22.8-13.4-45.8
			c4.9-16.2,12.7-24.7,33.1-29.6H246z"/>
		<path fill="#ECE565" d="M213.8,55.4C218.9,37,245.2,34,254.9,33H246c0,0-32.2,0.6-38,21.8c-7.2,26.2,3.2,40.8,22.8,51.2
			C216.9,95,207.4,78.6,213.8,55.4z"/>
	</g>
	<g id="etoile">
		<polygon fill="#F7EB5A" points="98.3,97 98.8,95.2 99.3,96.9 100.7,97.3 99.5,98 99.9,99.6 98.6,98.5 97,99.8 97.4,98 96.3,96.7 
					"/>
		<polygon fill="#F7EB5A" points="273.3,19.1 274.4,17.6 274.2,19.3 275.4,20.2 274,20.4 273.7,22.1 272.9,20.5 271,21.2 272,19.6 
			271.5,18 		"/>
		<polygon fill="#F7EB5A" points="300.8,91.8 299.4,88.6 302,90.5 304.5,89.4 303.6,91.8 306.1,93.8 302.8,93.6 302,97.3 
			300.5,94.3 297.4,93.6 		"/>
		<polygon opacity="0.5" fill="#F7EB5A" points="101.2,55.5 98.6,53.6 101.6,53.9 103.1,51.8 103.5,54.2 106.5,54.7 103.7,56 
			104.8,59.4 102.2,57.7 99.3,58.6 		"/>
		<polygon opacity="0.4" fill="#F7EB5A" points="201.2,143.4 199.6,141.3 201.9,142.2 203.6,141 203.3,143 205.5,144.1 203,144.5 
			203.1,147.4 201.4,145.4 198.9,145.4 		"/>
		<polygon fill="#F7EB5A" points="154.4,24.8 152.2,23.7 154.5,23.5 155.4,21.7 156,23.5 158.3,23.5 156.4,24.9 157.7,27.3 
			155.4,26.4 153.3,27.4 		"/>
		<polygon fill="#F7EB5A" points="202.8,36.9 204,37.2 202.9,37.6 202.7,38.6 202.2,37.8 201,38.1 201.8,37.2 200.8,36.2 202,36.3 
			202.9,35.5 		"/>
		<polygon opacity="0.5" fill="#F7EB5A" points="281.1,50.3 282.3,50.5 281.2,51 281,52 280.5,51.2 279.4,51.5 280.1,50.5 
			279.1,49.5 280.4,49.7 281.2,48.9 		"/>
		<polygon opacity="0.5" fill="#F7EB5A" points="170.3,189.3 171,189.4 170.4,189.7 170.2,190.3 169.9,189.8 169.2,190 169.7,189.4 
			169.1,188.8 169.8,188.9 170.4,188.4 		"/>
		<polygon opacity="0.5" fill="#F7EB5A" points="422.1,53.1 422.8,53.3 422.1,53.5 422,54.1 421.7,53.6 421,53.8 421.5,53.3 
			420.9,52.6 421.6,52.7 422.1,52.2 		"/>
		<polygon opacity="0.5" fill="#F7EB5A" points="72.7,40.9 73.5,41.1 72.8,41.3 72.7,41.9 72.4,41.5 71.7,41.7 72.1,41.1 71.5,40.5 
			72.3,40.6 72.8,40.1 		"/>
		<polygon opacity="0.5" fill="#F7EB5A" points="323.3,38.1 324.1,38.2 323.4,38.5 323.3,39.1 322.9,38.6 322.3,38.8 322.7,38.2 
			322.1,37.6 322.9,37.7 323.4,37.2 		"/>
		<polygon opacity="0.5" fill="#F7EB5A" points="85.6,25 86.4,25.2 85.7,25.4 85.6,26 85.2,25.6 84.5,25.8 85,25.2 84.4,24.5 
			85.2,24.6 85.7,24.2 		"/>
		<polygon opacity="0.5" fill="#F7EB5A" points="347.1,140.8 347.9,141 347.2,141.2 347.1,141.8 346.8,141.3 346.1,141.5 346.5,141 
			345.9,140.3 346.7,140.4 347.2,139.9 		"/>
		<polygon opacity="0.5" fill="#F7EB5A" points="139.7,136 140.4,136.2 139.7,136.4 139.6,137 139.3,136.6 138.6,136.8 139.1,136.2 
			138.5,135.6 139.2,135.7 139.8,135.2 		"/>
		<polygon opacity="0.5" fill="#F7EB5A" points="212.8,34.6 214,34.8 212.9,35.2 212.7,36.2 212.2,35.4 211,35.8 211.8,34.8 
			210.8,33.8 212.1,34 212.9,33.1 		"/>
		<polygon opacity="0.5" fill="#F7EB5A" points="347,84.4 348.3,84.6 347.2,85 347,86 346.4,85.2 345.3,85.6 346.1,84.6 345.1,83.6 
			346.3,83.8 347.2,82.9 		"/>
		<polygon opacity="0.5" fill="#F7EB5A" points="113.5,207.3 114.9,207.6 113.6,208.1 113.4,209.2 112.8,208.3 111.5,208.7 
			112.3,207.6 111.2,206.4 112.6,206.6 113.6,205.7 		"/>
		<polygon opacity="0.5" fill="#F7EB5A" points="270.9,75.4 272.7,75.7 271.1,76.3 270.8,77.7 270,76.6 268.4,77.1 269.5,75.7 
			268.1,74.3 269.9,74.5 271.1,73.4 		"/>
		<polygon opacity="0.5" fill="#F7EB5A" points="168.9,106.8 170.4,107.1 169.1,107.5 168.9,108.7 168.2,107.8 166.9,108.2 
			167.8,107 166.7,105.9 168.1,106.1 169.1,105.1 		"/>
		<polygon opacity="0.5" fill="#F7EB5A" points="24.2,38.8 25.6,39.3 24.3,39.6 23.9,40.7 23.4,39.7 22,39.9 23.1,38.9 22.1,37.6 
			23.5,38 24.6,37.2 		"/>
		<polygon opacity="0.5" fill="#F7EB5A" points="158.1,59.8 159.9,60.4 158.1,60.8 157.6,62.3 156.9,61 155.1,61.2 156.5,59.9 
			155.2,58.1 157.1,58.7 158.6,57.6 		"/>
		<polygon opacity="0.5" fill="#F7EB5A" points="264.6,137.4 265.9,138.1 264.6,138.1 264,139.2 263.7,138.1 262.3,138.1 
			263.5,137.3 262.7,135.9 264.1,136.5 265.3,135.9 		"/>
		<polygon opacity="0.5" fill="#F7EB5A" points="208.1,107.4 209.3,108 208.1,108 207.6,108.9 207.3,108 206.1,108 207.1,107.3 
			206.5,106 207.6,106.6 208.7,106 		"/>
		<polygon opacity="0.5" fill="#F7EB5A" points="228,171.9 229.1,172.5 227.9,172.6 227.4,173.5 227.1,172.6 226,172.5 227,171.8 
			226.3,170.6 227.5,171.1 228.5,170.6 		"/>
		<polygon opacity="0.5" fill="#F7EB5A" points="161.7,150 162.9,150.6 161.7,150.7 161.2,151.6 160.9,150.7 159.7,150.6 
			160.7,149.9 160.1,148.7 161.2,149.2 162.3,148.7 		"/>
		<polygon fill="#F7EB5A" points="237,86.8 238.2,87.3 237,87.5 236.6,88.4 236.2,87.5 235,87.6 236,86.8 235.2,85.6 236.4,86.1 
			237.4,85.4 		"/>
		<polygon fill="#F7EB5A" points="400.2,108.3 401.3,106.8 401.1,108.5 402.3,109.4 400.9,109.6 400.6,111.3 399.9,109.7 398,110.3 
			398.9,108.8 398.4,107.2 		"/>
		<polygon opacity="0.5" fill="#F7EB5A" points="408,139.5 409.3,139.7 408.2,140.1 408,141.1 407.4,140.4 406.3,140.7 407,139.7 
			406.1,138.7 407.3,138.9 408.2,138.1 		"/>
		<polygon opacity="0.5" fill="#F7EB5A" points="450.2,127.3 451,127.4 450.3,127.7 450.2,128.3 449.9,127.8 449.2,128 449.6,127.4 
			449,126.8 449.8,126.9 450.3,126.4 		"/>
		<polygon fill="#F7EB5A" points="33.9,145.7 35,144.2 34.8,145.9 36,146.8 34.6,147 34.3,148.7 33.6,147.1 31.6,147.8 32.6,146.2 
			32.1,144.6 		"/>
		<polygon opacity="0.5" fill="#F7EB5A" points="41.7,176.9 43,177.1 41.8,177.6 41.7,178.6 41.1,177.8 40,178.1 40.7,177.1 
			39.7,176.1 41,176.3 41.8,175.5 		"/>
		<polygon opacity="0.5" fill="#F7EB5A" points="83.9,164.7 84.7,164.8 84,165.1 83.9,165.7 83.6,165.2 82.9,165.4 83.3,164.8 
			82.7,164.2 83.5,164.3 84,163.8 		"/>
		<polygon fill="#F7EB5A" points="475.6,32.9 476.7,31.5 476.5,33.2 477.7,34 476.3,34.3 476.1,35.9 475.3,34.4 473.4,35 
			474.4,33.5 473.8,31.9 		"/>
		<polygon opacity="0.5" fill="#F7EB5A" points="481,88.2 482.2,88.4 481.1,88.8 480.9,89.8 480.4,89 479.2,89.4 480,88.4 479,87.4 
			480.3,87.6 481.1,86.7 		"/>
		<polygon opacity="0.5" fill="#F7EB5A" points="542.1,79 542.9,79.1 542.2,79.4 542.1,80 541.7,79.5 541,79.7 541.5,79.1 
			540.9,78.5 541.7,78.6 542.2,78.1 		"/>
		<polygon fill="#F7EB5A" points="496.1,133.2 497.2,131.7 497,133.4 498.2,134.3 496.8,134.5 496.5,136.2 495.8,134.6 493.8,135.2 
			494.8,133.7 494.3,132.1 		"/>
		<polygon opacity="0.5" fill="#F7EB5A" points="485.9,173.9 487.2,174.2 486.1,174.6 485.9,175.6 485.4,174.8 484.2,175.1 
			485,174.2 484,173.2 485.2,173.3 486.1,172.5 		"/>
		<polygon opacity="0.5" fill="#F7EB5A" points="548.1,138.7 548.9,138.8 548.2,139.1 548.1,139.7 547.8,139.2 547.1,139.4 
			547.5,138.8 546.9,138.2 547.7,138.3 548.2,137.8 		"/>
		<polygon fill="#F7EB5A" points="155.3,245.6 155.8,243.9 156.3,245.5 157.7,245.9 156.5,246.6 156.9,248.3 155.6,247.1 154,248.4 
			154.4,246.6 153.3,245.3 		"/>
		<polygon fill="#F7EB5A" points="61.6,237.1 62.7,235.7 62.5,237.4 63.7,238.2 62.4,238.5 62.1,240.1 61.3,238.6 59.4,239.2 
			60.4,237.7 59.9,236.1 		"/>
		<polygon fill="#F7EB5A" points="513.4,204.6 514.5,203.2 514.3,204.9 515.5,205.7 514.1,206 513.8,207.6 513.1,206.1 511.1,206.7 
			512.1,205.2 511.6,203.6 		"/>
		<polygon opacity="0.5" fill="#F7EB5A" points="475.5,252.6 476.7,252.9 475.6,253.3 475.4,254.3 474.9,253.5 473.7,253.8 
			474.5,252.9 473.5,251.9 474.7,252 475.6,251.2 		"/>
		<polygon opacity="0.5" fill="#F7EB5A" points="536.6,243.4 537.4,243.6 536.7,243.8 536.6,244.4 536.2,244 535.5,244.2 536,243.6 
			535.4,243 536.2,243.1 536.7,242.6 		"/>
	</g>
</g>
<g id="boy">
	<g>
		<g>
			<path id="corps_1_" fill="#ECE565" d="M269.2,205.3v-8.9h-8.7v-8.9h-8.7h-0.2h-8.7v8.9h-8.5v-8.9h-8.7h-0.2h-8.7v8.9h-8.7v8.9
				h-8.7v8.9v8.9v8.9v8.9v8.9v8.9h8.9v-8.9h8.5v8.9h8.9v-8.9h8.5v8.9h8.9v-8.9h8.5v8.9h8.9v-8.9h8.5v8.9h8.9v-8.9v-8.9V232v-8.9
				v-8.9v-8.9H269.2z"/>
		</g>
		<rect id="bouche_1_" x="234.3" y="236" fill="#D43F8E" width="8.8" height="9.2"/>
		<g id="chapeau">
			<rect x="219.7" y="180.2" fill="#422A19" width="35.9" height="4.2"/>
			<rect x="224.9" y="171.2" fill="#422A19" width="26" height="9.3"/>
		</g>
		<g id="yeux_1_">
			<rect x="208.4" y="214" fill="#FFFFFF" width="17.1" height="18.2"/>
			<rect x="251.7" y="214" fill="#FFFFFF" width="17.1" height="18.2"/>
			<rect x="216.7" y="218.4" fill="#44AFC3" width="8.8" height="9.2"/>
			<rect x="260" y="218.4" fill="#44AFC3" width="8.8" height="9.2"/>
		</g>
	</g>
</g>
<g id="girl">
	<g>
		<g id="corps">
			<path fill="#44AFC3" d="M307,208.5c0-10.9,8.8-19.7,19.7-19.7s19.7,8.8,19.7,19.7"/>
			<path fill="#44AFC3" d="M346,208.1c0-10.9,8.8-19.7,19.7-19.7s19.7,8.8,19.7,19.7"/>
			<path fill="#44AFC3" d="M307,207.8v44.2h78.3v-44.2H307z M327.6,226.4c-4.8,0-8.7-3.9-8.7-8.7c0-4.8,3.9-8.7,8.7-8.7
				c4.8,0,8.7,3.9,8.7,8.7C336.3,222.6,332.4,226.4,327.6,226.4z M366.4,226.4c-4.8,0-8.7-3.9-8.7-8.7c0-4.8,3.9-8.7,8.7-8.7
				c4.8,0,8.7,3.9,8.7,8.7C375.1,222.6,371.2,226.4,366.4,226.4z"/>
		</g>
		<g id="pattes">
			<path fill="#44AFC3" d="M318,251.8c-5,8-12.4,8.7-20.4,7l0,0l0,0l0,0c-0.2,0-0.4-0.1-0.5-0.2c-0.5-0.3-0.7-1-0.3-1.5
				c0.2-0.3,0.5-0.5,0.9-0.5l0,0c5.3-1,6.8-1,9.3-5"/>
			<path fill="#44AFC3" d="M336.5,251.8c-5,8-12.4,8.7-20.4,7l0,0l0,0l0,0c-0.2,0-0.4-0.1-0.5-0.2c-0.5-0.3-0.7-1-0.3-1.5
				c0.2-0.3,0.5-0.5,0.9-0.5l0,0c5.3-1,6.8-1,9.3-5"/>
			<path fill="#44AFC3" d="M337.2,250.7c4,8.5,11.2,10.2,19.3,9.5l0,0l0,0l0,0c0.2,0,0.4,0,0.5-0.1c0.5-0.3,0.8-0.9,0.5-1.5
				c-0.2-0.3-0.5-0.6-0.8-0.6l0,0c-5.1-1.6-6.6-1.8-8.6-6.2"/>
			<path fill="#44AFC3" d="M354.9,251.8c5,8,12.4,8.7,20.4,7l0,0l0,0l0,0c0.2,0,0.4-0.1,0.5-0.2c0.5-0.3,0.7-1,0.3-1.5
				c-0.2-0.3-0.5-0.5-0.9-0.5l0,0c-5.3-1-6.8-1-9.3-5"/>
			<path fill="#44AFC3" d="M374.3,251.8c5,8,12.4,8.7,20.4,7l0,0l0,0l0,0c0.2,0,0.4-0.1,0.5-0.2c0.5-0.3,0.7-1,0.3-1.5
				c-0.2-0.3-0.5-0.5-0.9-0.5l0,0c-5.3-1-6.8-1-9.3-5"/>
		</g>
		<g id="yeux">
			<circle fill="#ECE565" cx="324.5" cy="217.9" r="5.6"/>
			<circle fill="#ECE565" cx="363.4" cy="217.9" r="5.6"/>
			<path fill="#3BA7B8" d="M375.1,215.8c-5.4-2.9-14.4-2.7-17.4,0c-1.3,1,0.3-7.8,9.6-7.9C367.3,207.9,375.9,209,375.1,215.8z"/>
			<path fill="#3BA7B8" d="M319,215.8c5.4-2.9,14.4-2.7,17.4,0c1.3,1-0.3-7.8-9.6-7.9C326.8,207.9,318.2,209,319,215.8z"/>
			<path fill="#3A3935" d="M336,215.5c0,0-1.8-1.8-8.7-1.7c-6,0.1-7.9,2.1-7.9,2.1l-3.6,0.2c0,0,5.3-4.4,10.4-4.4
				C331.2,211.7,336,215.5,336,215.5z"/>
			<path fill="#3A3935" d="M358.1,215.5c0,0,2.8-2.2,8.8-1.5c6,0.7,8.2,2.1,8.2,2.1l3.2,0.2c0,0-5.3-4.4-10.4-4.4
				S358.1,215.5,358.1,215.5z"/>
		</g>
		<g id="bouche">
			<path fill="#D43F8E" d="M348.9,237.6c0,1.7-1.7,3-3.7,3c-2.1,0-3.7-1.4-3.7-3c0-1.7,1.6-1.2,3.6-1.2
				C347.1,236.4,348.9,236,348.9,237.6z"/>
			<ellipse fill="#D43F8E" cx="343.4" cy="236.3" rx="2.2" ry="2"/>
			<ellipse fill="#D43F8E" cx="346.8" cy="236.2" rx="2.2" ry="2"/>
		</g>
		<g id="noeud">
			<path fill="#CB3C8D" d="M357.5,184.6c-0.4,2.4,2.4,4.7,6.2,5.2s7.3-1.1,7.7-3.5c0.4-2.4-2.4-4.7-6.2-5.2
				C361.3,180.6,357.9,182.2,357.5,184.6z"/>
			<path fill="#CB3C8D" d="M385.9,191.1c-0.7,2.3-4.7,3-8.9,1.6s-6.9-4.5-6.2-6.8c0.7-2.3,4.7-3,8.9-1.6S386.7,188.8,385.9,191.1z"
				/>
			<path fill="#D43F8E" d="M357.3,178.2c-0.9,2.2,2.5,6.2,5.9,8c3.4,1.9,7,1.6,7.9-0.6c0.9-2.2-0.9-6.5-4.4-8.4
				C363.3,175.3,358.2,176,357.3,178.2z"/>
			<path fill="#D43F8E" d="M388.5,185.9c-0.2,2.4-5.4,3.8-9.8,3.8s-7.9-2-7.7-4.4c0.2-2.4,5.8-4.7,10.2-4.7S388.7,183.4,388.5,185.9
				z"/>
			<path fill="#C23B88" d="M375.2,186c-0.5,2.3-2,4-4.4,3.4s-2.8-2.4-2.3-4.7s1.9-4.1,4.2-3.6C375.2,181.7,375.7,183.7,375.2,186z"
				/>
		</g>
	</g>
</g>
</svg>
