<?xml version="1.0" encoding="utf-8"?>
<!-- Generator: Adobe Illustrator 18.1.0, SVG Export Plug-In . SVG Version: 6.00 Build 0)  -->
<!DOCTYPE svg PUBLIC "-//W3C//DTD SVG 1.1//EN" "http://www.w3.org/Graphics/SVG/1.1/DTD/svg11.dtd">
<svg version="1.1" id="Calque_1" xmlns="http://www.w3.org/2000/svg" xmlns:xlink="http://www.w3.org/1999/xlink" x="0px" y="0px"
	 viewBox="0 0 307.9 318.4" enable-background="new 0 0 307.9 318.4" xml:space="preserve">
<path fill="#C3DBF0" d="M139,100.3c0,0-32.2,0.6-38,21.8c-7.7,28.2,4.9,43,27.5,53.5c0,0-20.4-22.8-13.4-45.8
	c4.9-16.2,12.7-24.7,33.1-29.6H139z"/>
<path fill="#A5C7DE" d="M106.8,122.8c5.1-18.4,31.3-21.4,41.1-22.4H139c0,0-32.2,0.6-38,21.8c-7.2,26.2,3.2,40.8,22.8,51.2
	C109.9,162.4,100.4,146,106.8,122.8z"/>
<polygon fill="#C3DBF0" points="85.3,143.4 85.8,141.6 86.3,143.3 87.7,143.6 86.5,144.3 86.9,146 85.6,144.8 84,146.1 84.4,144.3 
	83.3,143 "/>
<polygon fill="#C3DBF0" points="166.2,86.4 167.3,85 167.2,86.7 168.4,87.5 167,87.8 166.7,89.4 165.9,87.9 164,88.5 165,87 
	164.5,85.4 "/>
<polygon fill="#C3DBF0" points="147.4,135.9 146,132.8 148.7,134.7 151.2,133.5 150.3,136 152.7,138 149.4,137.8 148.7,141.5 
	147.1,138.4 144,137.8 "/>
<polygon opacity="0.5" fill="#C3DBF0" points="125.4,83.3 122.8,81.3 125.8,81.6 127.3,79.5 127.7,81.9 130.7,82.4 127.9,83.8 
	129.1,87.2 126.4,85.5 123.5,86.4 "/>
<polygon opacity="0.4" fill="#C3DBF0" points="94.2,210.8 92.6,208.6 94.9,209.6 96.6,208.3 96.3,210.3 98.5,211.4 96,211.8 
	96.1,214.7 94.4,212.7 91.9,212.7 "/>
<polygon fill="#C3DBF0" points="81.4,118.3 79.2,117.1 81.6,117 82.4,115.2 83.1,117 85.4,117 83.4,118.4 84.7,120.8 82.4,119.8 
	80.4,120.9 "/>
<polygon fill="#C3DBF0" points="95.7,104.3 97,104.5 95.9,104.9 95.7,105.9 95.2,105.1 94,105.5 94.8,104.5 93.8,103.5 95,103.7 
	95.9,102.9 "/>
<polygon opacity="0.5" fill="#C3DBF0" points="174.1,117.6 175.3,117.9 174.2,118.3 174,119.3 173.5,118.5 172.4,118.8 173.1,117.9 
	172.1,116.9 173.4,117 174.2,116.2 "/>
<polygon opacity="0.5" fill="#C3DBF0" points="160.6,264.8 161.3,265 160.7,265.2 160.6,265.8 160.2,265.3 159.5,265.5 160,265 
	159.4,264.3 160.1,264.4 160.7,263.9 "/>
<polygon opacity="0.5" fill="#C3DBF0" points="63.3,256.6 64,256.8 63.4,257 63.2,257.6 62.9,257.2 62.2,257.4 62.7,256.8 
	62.1,256.2 62.8,256.3 63.4,255.8 "/>
<polygon opacity="0.5" fill="#C3DBF0" points="262.8,93.8 263.6,93.9 262.9,94.2 262.8,94.8 262.5,94.3 261.8,94.5 262.2,93.9 
	261.6,93.3 262.4,93.4 262.9,92.9 "/>
<polygon opacity="0.5" fill="#C3DBF0" points="96.9,68.7 97.7,68.8 97,69.1 96.9,69.7 96.6,69.2 95.9,69.4 96.3,68.8 95.7,68.2 
	96.5,68.3 97,67.8 "/>
<polygon opacity="0.5" fill="#C3DBF0" points="216.3,105.4 217.1,105.6 216.4,105.8 216.3,106.4 215.9,106 215.2,106.2 215.7,105.6 
	215.1,105 215.9,105.1 216.4,104.6 "/>
<polygon opacity="0.5" fill="#C3DBF0" points="109.8,52.8 110.6,52.9 109.9,53.2 109.8,53.8 109.4,53.3 108.7,53.5 109.2,52.9 
	108.6,52.3 109.4,52.4 109.9,51.9 "/>
<polygon opacity="0.5" fill="#C3DBF0" points="62.7,99.9 63.4,100.1 62.7,100.3 62.6,100.9 62.3,100.5 61.6,100.7 62.1,100.1 
	61.5,99.4 62.2,99.5 62.7,99.1 "/>
<polygon opacity="0.5" fill="#C3DBF0" points="32.7,203.4 33.4,203.5 32.7,203.8 32.6,204.4 32.3,203.9 31.6,204.1 32.1,203.5 
	31.5,202.9 32.2,203 32.8,202.5 "/>
<polygon opacity="0.5" fill="#C3DBF0" points="237,62.3 238.2,62.6 237.1,63 236.9,64 236.4,63.2 235.2,63.5 236,62.6 235,61.6 
	236.3,61.7 237.1,60.9 "/>
<polygon opacity="0.5" fill="#C3DBF0" points="240,151.7 241.3,151.9 240.2,152.4 240,153.4 239.4,152.6 238.3,152.9 239.1,151.9 
	238.1,150.9 239.3,151.1 240.2,150.3 "/>
<polygon opacity="0.5" fill="#C3DBF0" points="187.6,73 188.8,73.2 187.7,73.6 187.5,74.6 187,73.8 185.8,74.2 186.6,73.2 
	185.6,72.2 186.8,72.3 187.7,71.5 "/>
<polygon opacity="0.5" fill="#C3DBF0" points="87.6,86.8 89.1,87.1 87.8,87.5 87.6,88.7 87,87.8 85.7,88.2 86.5,87.1 85.4,85.9 
	86.8,86.1 87.8,85.2 "/>
<polygon opacity="0.5" fill="#C3DBF0" points="152.1,178 153.9,178.3 152.3,178.9 152.1,180.3 151.3,179.2 149.7,179.7 150.8,178.3 
	149.4,176.9 151.1,177.1 152.3,175.9 "/>
<polygon opacity="0.5" fill="#C3DBF0" points="61.9,174.1 63.4,174.4 62.1,174.9 61.9,176 61.2,175.1 59.9,175.5 60.8,174.4 
	59.7,173.2 61.1,173.4 62.1,172.5 "/>
<polygon opacity="0.5" fill="#C3DBF0" points="48.4,66.6 49.8,67.1 48.5,67.3 48.1,68.4 47.6,67.5 46.2,67.6 47.3,66.7 46.3,65.4 
	47.7,65.8 48.8,65 "/>
<polygon opacity="0.5" fill="#C3DBF0" points="51.1,127.1 52.9,127.8 51.1,128.1 50.6,129.6 49.9,128.3 48.1,128.5 49.5,127.2 
	48.2,125.5 50.1,126 51.6,125 "/>
<polygon opacity="0.5" fill="#C3DBF0" points="157.6,204.7 158.9,205.4 157.5,205.5 157,206.5 156.7,205.5 155.3,205.5 156.5,204.7 
	155.7,203.2 157.1,203.8 158.3,203.2 "/>
<polygon opacity="0.5" fill="#C3DBF0" points="101.1,174.7 102.3,175.3 101.1,175.4 100.6,176.3 100.3,175.4 99.1,175.3 
	100.1,174.6 99.5,173.4 100.6,173.9 101.7,173.4 "/>
<polygon opacity="0.5" fill="#C3DBF0" points="121,239.2 122.1,239.8 120.9,239.9 120.4,240.8 120.1,239.9 118.9,239.9 120,239.2 
	119.3,237.9 120.5,238.4 121.5,237.9 "/>
<polygon opacity="0.5" fill="#C3DBF0" points="54.7,217.3 55.9,217.9 54.7,218 54.2,218.9 53.9,218 52.7,218 53.7,217.3 53.1,216 
	54.2,216.5 55.3,216 "/>
<polygon fill="#C3DBF0" points="130,154.1 131.1,154.6 130,154.8 129.6,155.8 129.2,154.9 128,155 129,154.2 128.2,153 129.4,153.4 
	130.4,152.8 "/>
</svg>
