<?xml version="1.0" encoding="utf-8"?>
<!-- Generator: Adobe Illustrator 18.1.0, SVG Export Plug-In . SVG Version: 6.00 Build 0)  -->
<!DOCTYPE svg PUBLIC "-//W3C//DTD SVG 1.1//EN" "http://www.w3.org/Graphics/SVG/1.1/DTD/svg11.dtd">
<svg version="1.1" xmlns="http://www.w3.org/2000/svg" xmlns:xlink="http://www.w3.org/1999/xlink" x="0px" y="0px"
	 viewBox="0 0 600 300" enable-background="new 0 0 600 300" xml:space="preserve">
<g id="Calque_1">
	
		<radialGradient id="SVGID_1_" cx="215.6685" cy="53.9641" r="446.314" gradientTransform="matrix(1.3599 0 0 0.6792 -175.9699 16.0239)" gradientUnits="userSpaceOnUse">
		<stop  offset="0" style="stop-color:#06A1D0"/>
		<stop  offset="1" style="stop-color:#0872A3"/>
	</radialGradient>
	<rect x="-5.8" y="-3.9" fill="url(#SVGID_1_)" width="616.8" height="308.1"/>
</g>
<g id="fond">
	<g id="etoiles">
		<polygon fill="#F7EB5A" points="98.3,97 98.8,95.2 99.3,96.9 100.7,97.3 99.5,98 99.9,99.6 98.6,98.5 97,99.8 97.4,98 96.3,96.7 
					"/>
		<polygon fill="#F7EB5A" points="273.3,19.1 274.4,17.6 274.2,19.3 275.4,20.2 274,20.4 273.7,22.1 272.9,20.5 271,21.2 272,19.6 
			271.5,18 		"/>
		<polygon fill="#F7EB5A" points="300.8,91.8 299.4,88.6 302,90.5 304.5,89.4 303.6,91.8 306.1,93.8 302.8,93.6 302,97.3 
			300.5,94.3 297.4,93.6 		"/>
		<polygon opacity="0.5" fill="#F7EB5A" points="101.2,55.5 98.6,53.6 101.6,53.9 103.1,51.8 103.5,54.2 106.5,54.7 103.7,56 
			104.8,59.4 102.2,57.7 99.3,58.6 		"/>
		<polygon opacity="0.4" fill="#F7EB5A" points="201.2,143.4 199.6,141.3 201.9,142.2 203.6,141 203.3,143 205.5,144.1 203,144.5 
			203.1,147.4 201.4,145.4 198.9,145.4 		"/>
		<polygon fill="#F7EB5A" points="154.4,24.8 152.2,23.7 154.5,23.5 155.4,21.7 156,23.5 158.3,23.5 156.4,24.9 157.7,27.3 
			155.4,26.4 153.3,27.4 		"/>
		<polygon fill="#F7EB5A" points="202.8,36.9 204,37.2 202.9,37.6 202.7,38.6 202.2,37.8 201,38.1 201.8,37.2 200.8,36.2 202,36.3 
			202.9,35.5 		"/>
		<polygon opacity="0.5" fill="#F7EB5A" points="281.1,50.3 282.3,50.5 281.2,51 281,52 280.5,51.2 279.4,51.5 280.1,50.5 
			279.1,49.5 280.4,49.7 281.2,48.9 		"/>
		<polygon opacity="0.5" fill="#F7EB5A" points="170.3,189.3 171,189.4 170.4,189.7 170.2,190.3 169.9,189.8 169.2,190 169.7,189.4 
			169.1,188.8 169.8,188.9 170.4,188.4 		"/>
		<polygon opacity="0.5" fill="#F7EB5A" points="422.1,53.1 422.8,53.3 422.1,53.5 422,54.1 421.7,53.6 421,53.8 421.5,53.3 
			420.9,52.6 421.6,52.7 422.1,52.2 		"/>
		<polygon opacity="0.5" fill="#F7EB5A" points="72.7,40.9 73.5,41.1 72.8,41.3 72.7,41.9 72.4,41.5 71.7,41.7 72.1,41.1 71.5,40.5 
			72.3,40.6 72.8,40.1 		"/>
		<polygon opacity="0.5" fill="#F7EB5A" points="323.3,38.1 324.1,38.2 323.4,38.5 323.3,39.1 322.9,38.6 322.3,38.8 322.7,38.2 
			322.1,37.6 322.9,37.7 323.4,37.2 		"/>
		<polygon opacity="0.5" fill="#F7EB5A" points="85.6,25 86.4,25.2 85.7,25.4 85.6,26 85.2,25.6 84.5,25.8 85,25.2 84.4,24.5 
			85.2,24.6 85.7,24.2 		"/>
		<polygon opacity="0.5" fill="#F7EB5A" points="347.1,140.8 347.9,141 347.2,141.2 347.1,141.8 346.8,141.3 346.1,141.5 346.5,141 
			345.9,140.3 346.7,140.4 347.2,139.9 		"/>
		<polygon opacity="0.5" fill="#F7EB5A" points="139.7,136 140.4,136.2 139.7,136.4 139.6,137 139.3,136.6 138.6,136.8 139.1,136.2 
			138.5,135.6 139.2,135.7 139.8,135.2 		"/>
		<polygon opacity="0.5" fill="#F7EB5A" points="212.8,34.6 214,34.8 212.9,35.2 212.7,36.2 212.2,35.4 211,35.8 211.8,34.8 
			210.8,33.8 212.1,34 212.9,33.1 		"/>
		<polygon opacity="0.5" fill="#F7EB5A" points="347,84.4 348.3,84.6 347.2,85 347,86 346.4,85.2 345.3,85.6 346.1,84.6 345.1,83.6 
			346.3,83.8 347.2,82.9 		"/>
		<polygon opacity="0.5" fill="#F7EB5A" points="113.5,207.3 114.9,207.6 113.6,208.1 113.4,209.2 112.8,208.3 111.5,208.7 
			112.3,207.6 111.2,206.4 112.6,206.6 113.6,205.7 		"/>
		<polygon opacity="0.5" fill="#F7EB5A" points="270.9,75.4 272.7,75.7 271.1,76.3 270.8,77.7 270,76.6 268.4,77.1 269.5,75.7 
			268.1,74.3 269.9,74.5 271.1,73.4 		"/>
		<polygon opacity="0.5" fill="#F7EB5A" points="168.9,106.8 170.4,107.1 169.1,107.5 168.9,108.7 168.2,107.8 166.9,108.2 
			167.8,107 166.7,105.9 168.1,106.1 169.1,105.1 		"/>
		<polygon opacity="0.5" fill="#F7EB5A" points="24.2,38.8 25.6,39.3 24.3,39.6 23.9,40.7 23.4,39.7 22,39.9 23.1,38.9 22.1,37.6 
			23.5,38 24.6,37.2 		"/>
		<polygon opacity="0.5" fill="#F7EB5A" points="158.1,59.8 159.9,60.4 158.1,60.8 157.6,62.3 156.9,61 155.1,61.2 156.5,59.9 
			155.2,58.1 157.1,58.7 158.6,57.6 		"/>
		<polygon opacity="0.5" fill="#F7EB5A" points="264.6,137.4 265.9,138.1 264.6,138.1 264,139.2 263.7,138.1 262.3,138.1 
			263.5,137.3 262.7,135.9 264.1,136.5 265.3,135.9 		"/>
		<polygon opacity="0.5" fill="#F7EB5A" points="208.1,107.4 209.3,108 208.1,108 207.6,108.9 207.3,108 206.1,108 207.1,107.3 
			206.5,106 207.6,106.6 208.7,106 		"/>
		<polygon opacity="0.5" fill="#F7EB5A" points="228,171.9 229.1,172.5 227.9,172.6 227.4,173.5 227.1,172.6 226,172.5 227,171.8 
			226.3,170.6 227.5,171.1 228.5,170.6 		"/>
		<polygon opacity="0.5" fill="#F7EB5A" points="161.7,150 162.9,150.6 161.7,150.7 161.2,151.6 160.9,150.7 159.7,150.6 
			160.7,149.9 160.1,148.7 161.2,149.2 162.3,148.7 		"/>
		<polygon fill="#F7EB5A" points="237,86.8 238.2,87.3 237,87.5 236.6,88.4 236.2,87.5 235,87.6 236,86.8 235.2,85.6 236.4,86.1 
			237.4,85.4 		"/>
		<polygon fill="#F7EB5A" points="400.2,108.3 401.3,106.8 401.1,108.5 402.3,109.4 400.9,109.6 400.6,111.3 399.9,109.7 398,110.3 
			398.9,108.8 398.4,107.2 		"/>
		<polygon opacity="0.5" fill="#F7EB5A" points="408,139.5 409.3,139.7 408.2,140.1 408,141.1 407.4,140.4 406.3,140.7 407,139.7 
			406.1,138.7 407.3,138.9 408.2,138.1 		"/>
		<polygon opacity="0.5" fill="#F7EB5A" points="450.2,127.3 451,127.4 450.3,127.7 450.2,128.3 449.9,127.8 449.2,128 449.6,127.4 
			449,126.8 449.8,126.9 450.3,126.4 		"/>
		<polygon fill="#F7EB5A" points="33.9,145.7 35,144.2 34.8,145.9 36,146.8 34.6,147 34.3,148.7 33.6,147.1 31.6,147.8 32.6,146.2 
			32.1,144.6 		"/>
		<polygon opacity="0.5" fill="#F7EB5A" points="41.7,176.9 43,177.1 41.8,177.6 41.7,178.6 41.1,177.8 40,178.1 40.7,177.1 
			39.7,176.1 41,176.3 41.8,175.5 		"/>
		<polygon opacity="0.5" fill="#F7EB5A" points="83.9,164.7 84.7,164.8 84,165.1 83.9,165.7 83.6,165.2 82.9,165.4 83.3,164.8 
			82.7,164.2 83.5,164.3 84,163.8 		"/>
		<polygon fill="#F7EB5A" points="475.6,32.9 476.7,31.5 476.5,33.2 477.7,34 476.3,34.3 476.1,35.9 475.3,34.4 473.4,35 
			474.4,33.5 473.8,31.9 		"/>
		<polygon opacity="0.5" fill="#F7EB5A" points="481,88.2 482.2,88.4 481.1,88.8 480.9,89.8 480.4,89 479.2,89.4 480,88.4 479,87.4 
			480.3,87.6 481.1,86.7 		"/>
		<polygon opacity="0.5" fill="#F7EB5A" points="542.1,79 542.9,79.1 542.2,79.4 542.1,80 541.7,79.5 541,79.7 541.5,79.1 
			540.9,78.5 541.7,78.6 542.2,78.1 		"/>
		<polygon fill="#F7EB5A" points="496.1,133.2 497.2,131.7 497,133.4 498.2,134.3 496.8,134.5 496.5,136.2 495.8,134.6 493.8,135.2 
			494.8,133.7 494.3,132.1 		"/>
		<polygon opacity="0.5" fill="#F7EB5A" points="485.9,173.9 487.2,174.2 486.1,174.6 485.9,175.6 485.4,174.8 484.2,175.1 
			485,174.2 484,173.2 485.2,173.3 486.1,172.5 		"/>
		<polygon opacity="0.5" fill="#F7EB5A" points="548.1,138.7 548.9,138.8 548.2,139.1 548.1,139.7 547.8,139.2 547.1,139.4 
			547.5,138.8 546.9,138.2 547.7,138.3 548.2,137.8 		"/>
		<polygon fill="#F7EB5A" points="155.3,245.6 155.8,243.9 156.3,245.5 157.7,245.9 156.5,246.6 156.9,248.3 155.6,247.1 154,248.4 
			154.4,246.6 153.3,245.3 		"/>
		<polygon fill="#F7EB5A" points="61.6,237.1 62.7,235.7 62.5,237.4 63.7,238.2 62.4,238.5 62.1,240.1 61.3,238.6 59.4,239.2 
			60.4,237.7 59.9,236.1 		"/>
		<polygon fill="#F7EB5A" points="513.4,204.6 514.5,203.2 514.3,204.9 515.5,205.7 514.1,206 513.8,207.6 513.1,206.1 511.1,206.7 
			512.1,205.2 511.6,203.6 		"/>
		<polygon opacity="0.5" fill="#F7EB5A" points="475.5,252.6 476.7,252.9 475.6,253.3 475.4,254.3 474.9,253.5 473.7,253.8 
			474.5,252.9 473.5,251.9 474.7,252 475.6,251.2 		"/>
		<polygon opacity="0.5" fill="#F7EB5A" points="536.6,243.4 537.4,243.6 536.7,243.8 536.6,244.4 536.2,244 535.5,244.2 536,243.6 
			535.4,243 536.2,243.1 536.7,242.6 		"/>
	</g>
	<g id="lune_1_">
		<g id="lune">
			
				<image overflow="visible" opacity="0.2" width="332" height="440" xlink:href="AB5A6EFFE4BB6764.png"  transform="matrix(0.24 0 0 0.24 193.6857 20.9848)">
			</image>
			<g>
				<g>
					<path fill="#F7EB5A" d="M246,33c0,0-32.2,0.6-38,21.8c-7.7,28.2,4.9,43,27.5,53.5c0,0-20.4-22.8-13.4-45.8
						c4.9-16.2,12.7-24.7,33.1-29.6H246z"/>
					<path fill="#ECE565" d="M213.8,55.4C218.9,37,245.2,34,254.9,33H246c0,0-32.2,0.6-38,21.8c-7.2,26.2,3.2,40.8,22.8,51.2
						C216.9,95,207.4,78.6,213.8,55.4z"/>
				</g>
			</g>
		</g>
	</g>
</g>
<g id="boy">
	<g>
		
			<image overflow="visible" opacity="0.2" width="452" height="490" xlink:href="AB5A6EFFE4BB6765.png"  transform="matrix(0.24 0 0 0.24 187.4747 159.1874)">
		</image>
		<g>
			<g>
				<g>
					<path id="corps_14_" fill="#ECE565" d="M269.2,205.3v-8.9h-8.7v-8.9h-8.7h-0.2h-8.7v8.9h-8.5v-8.9h-8.7h-0.2h-8.7v8.9h-8.7v8.9
						h-8.7v8.9v8.9v8.9v8.9v8.9v8.9h8.9v-8.9h8.5v8.9h8.9v-8.9h8.5v8.9h8.9v-8.9h8.5v8.9h8.9v-8.9h8.5v8.9h8.9v-8.9v-8.9V232v-8.9
						v-8.9v-8.9H269.2z"/>
				</g>
				<rect id="bouche_14_" x="234.3" y="236" fill="#D43F8E" width="8.8" height="9.2"/>
				<g id="chapeau_9_">
					<rect x="219.7" y="180.2" fill="#422A19" width="35.9" height="4.2"/>
					<rect x="224.9" y="171.2" fill="#422A19" width="26" height="9.3"/>
				</g>
				<g id="yeux_11_">
					<rect x="208.4" y="214" fill="#FFFFFF" width="17.1" height="18.2"/>
					<rect x="251.7" y="214" fill="#FFFFFF" width="17.1" height="18.2"/>
					<rect x="216.7" y="218.4" fill="#44AFC3" width="8.8" height="9.2"/>
					<rect x="260" y="218.4" fill="#44AFC3" width="8.8" height="9.2"/>
				</g>
			</g>
		</g>
	</g>
</g>
<g id="girl">
	<g>
		
			<image overflow="visible" opacity="0.2" width="538" height="477" xlink:href="AB5A6EFFE4BB6763.png"  transform="matrix(0.24 0 0 0.24 284.5915 164.0928)">
		</image>
		<g>
			<g>
				<circle fill="#FFFFFF" cx="328.4" cy="221.3" r="11.3"/>
				<circle fill="#FFFFFF" cx="368" cy="219.4" r="11.3"/>
				<g id="corps_10_">
					<path fill="#44AFC3" d="M307,208.5c0-10.9,8.8-19.7,19.7-19.7s19.7,8.8,19.7,19.7"/>
					<path fill="#44AFC3" d="M346,208.1c0-10.9,8.8-19.7,19.7-19.7s19.7,8.8,19.7,19.7"/>
					<path fill="#44AFC3" d="M307,207.8v44.2h78.3v-44.2H307z M327.6,226.4c-4.8,0-8.7-3.9-8.7-8.7c0-4.8,3.9-8.7,8.7-8.7
						c4.8,0,8.7,3.9,8.7,8.7C336.3,222.6,332.4,226.4,327.6,226.4z M366.4,226.4c-4.8,0-8.7-3.9-8.7-8.7c0-4.8,3.9-8.7,8.7-8.7
						c4.8,0,8.7,3.9,8.7,8.7C375.1,222.6,371.2,226.4,366.4,226.4z"/>
				</g>
				<g id="pattes_9_">
					<path fill="#44AFC3" d="M318,251.8c-5,8-12.4,8.7-20.4,7l0,0l0,0l0,0c-0.2,0-0.4-0.1-0.5-0.2c-0.5-0.3-0.7-1-0.3-1.5
						c0.2-0.3,0.5-0.5,0.9-0.5l0,0c5.3-1,6.8-1,9.3-5"/>
					<path fill="#44AFC3" d="M336.5,251.8c-5,8-12.4,8.7-20.4,7l0,0l0,0l0,0c-0.2,0-0.4-0.1-0.5-0.2c-0.5-0.3-0.7-1-0.3-1.5
						c0.2-0.3,0.5-0.5,0.9-0.5l0,0c5.3-1,6.8-1,9.3-5"/>
					<path fill="#44AFC3" d="M337.2,250.7c4,8.5,11.2,10.2,19.3,9.5l0,0l0,0l0,0c0.2,0,0.4,0,0.5-0.1c0.5-0.3,0.8-0.9,0.5-1.5
						c-0.2-0.3-0.5-0.6-0.8-0.6l0,0c-5.1-1.6-6.6-1.8-8.6-6.2"/>
					<path fill="#44AFC3" d="M354.9,251.8c5,8,12.4,8.7,20.4,7l0,0l0,0l0,0c0.2,0,0.4-0.1,0.5-0.2c0.5-0.3,0.7-1,0.3-1.5
						c-0.2-0.3-0.5-0.5-0.9-0.5l0,0c-5.3-1-6.8-1-9.3-5"/>
					<path fill="#44AFC3" d="M374.3,251.8c5,8,12.4,8.7,20.4,7l0,0l0,0l0,0c0.2,0,0.4-0.1,0.5-0.2c0.5-0.3,0.7-1,0.3-1.5
						c-0.2-0.3-0.5-0.5-0.9-0.5l0,0c-5.3-1-6.8-1-9.3-5"/>
				</g>
				<g id="yeux_10_">
					<circle fill="#ECE565" cx="324.5" cy="217.9" r="5.6"/>
					<circle fill="#ECE565" cx="363.4" cy="217.9" r="5.6"/>
					<path fill="#3BA7B8" d="M375.1,215.8c-5.4-2.9-14.4-2.7-17.4,0c-1.3,1,0.3-7.8,9.6-7.9C367.3,207.9,375.9,209,375.1,215.8z"/>
					<path fill="#3BA7B8" d="M319,215.8c5.4-2.9,14.4-2.7,17.4,0c1.3,1-0.3-7.8-9.6-7.9C326.8,207.9,318.2,209,319,215.8z"/>
					<path fill="#3A3935" d="M336,215.5c0,0-1.8-1.8-8.7-1.7c-6,0.1-7.9,2.1-7.9,2.1l-3.6,0.2c0,0,5.3-4.4,10.4-4.4
						C331.2,211.7,336,215.5,336,215.5z"/>
					<path fill="#3A3935" d="M358.1,215.5c0,0,2.8-2.2,8.8-1.5c6,0.7,8.2,2.1,8.2,2.1l3.2,0.2c0,0-5.3-4.4-10.4-4.4
						S358.1,215.5,358.1,215.5z"/>
				</g>
				<g id="bouche_10_">
					<path fill="#D43F8E" d="M348.9,237.6c0,1.7-1.7,3-3.7,3c-2.1,0-3.7-1.4-3.7-3c0-1.7,1.6-1.2,3.6-1.2
						C347.1,236.4,348.9,236,348.9,237.6z"/>
					<ellipse fill="#D43F8E" cx="343.4" cy="236.3" rx="2.2" ry="2"/>
					<ellipse fill="#D43F8E" cx="346.8" cy="236.2" rx="2.2" ry="2"/>
				</g>
				<g id="noeud_9_">
					<path fill="#CB3C8D" d="M357.5,184.6c-0.4,2.4,2.4,4.7,6.2,5.2s7.3-1.1,7.7-3.5c0.4-2.4-2.4-4.7-6.2-5.2
						C361.3,180.6,357.9,182.2,357.5,184.6z"/>
					<path fill="#CB3C8D" d="M385.9,191.1c-0.7,2.3-4.7,3-8.9,1.6s-6.9-4.5-6.2-6.8c0.7-2.3,4.7-3,8.9-1.6S386.7,188.8,385.9,191.1z
						"/>
					<path fill="#D43F8E" d="M357.3,178.2c-0.9,2.2,2.5,6.2,5.9,8c3.4,1.9,7,1.6,7.9-0.6c0.9-2.2-0.9-6.5-4.4-8.4
						C363.3,175.3,358.2,176,357.3,178.2z"/>
					<path fill="#D43F8E" d="M388.5,185.9c-0.2,2.4-5.4,3.8-9.8,3.8s-7.9-2-7.7-4.4c0.2-2.4,5.8-4.7,10.2-4.7
						S388.7,183.4,388.5,185.9z"/>
					<path fill="#C23B88" d="M375.2,186c-0.5,2.3-2,4-4.4,3.4s-2.8-2.4-2.3-4.7s1.9-4.1,4.2-3.6C375.2,181.7,375.7,183.7,375.2,186z
						"/>
				</g>
			</g>
		</g>
	</g>
</g>
<g id="rayures">
	<g opacity="0.5">
		<polygon fill="#3DB9CE" points="154.6,300 600,77.3 600,76.7 153.5,300 		"/>
		<polygon fill="#3DB9CE" points="194.6,300 600,97.3 600,96.8 193.5,300 		"/>
		<polygon fill="#3DB9CE" points="208,300 600,104 600,103.4 206.9,300 		"/>
		<polygon fill="#3DB9CE" points="225.8,300 600,112.9 600,112.3 224.7,300 		"/>
		<polygon fill="#3DB9CE" points="203.5,300 600,101.8 600,101.2 202.4,300 		"/>
		<polygon fill="#3DB9CE" points="221.3,300 600,110.7 600,110.1 220.2,300 		"/>
		<polygon fill="#3DB9CE" points="216.9,300 600,108.4 600,107.9 215.8,300 		"/>
		<polygon fill="#3DB9CE" points="212.4,300 600,106.2 600,105.7 211.3,300 		"/>
		<polygon fill="#3DB9CE" points="199.1,300 600,99.5 600,99 198,300 		"/>
		<polygon fill="#3DB9CE" points="163.5,300 600,81.7 600,81.2 162.4,300 		"/>
		<polygon fill="#3DB9CE" points="167.9,300 600,84 600,83.4 166.8,300 		"/>
		<polygon fill="#3DB9CE" points="159,300 600,79.5 600,79 157.9,300 		"/>
		<polygon fill="#3DB9CE" points="301.4,300 600,150.7 600,150.1 300.3,300 		"/>
		<polygon fill="#3DB9CE" points="185.7,300 600,92.9 600,92.3 184.6,300 		"/>
		<polygon fill="#3DB9CE" points="176.8,300 600,88.4 600,87.9 175.7,300 		"/>
		<polygon fill="#3DB9CE" points="172.4,300 600,86.2 600,85.6 171.3,300 		"/>
		<polygon fill="#3DB9CE" points="190.2,300 600,95.1 600,94.5 189.1,300 		"/>
		<polygon fill="#3DB9CE" points="279.1,300 600,139.6 600,139 278,300 		"/>
		<polygon fill="#3DB9CE" points="283.6,300 600,141.8 600,141.2 282.5,300 		"/>
		<polygon fill="#3DB9CE" points="274.7,300 600,137.3 600,136.8 273.6,300 		"/>
		<polygon fill="#3DB9CE" points="270.3,300 600,135.1 600,134.6 269.1,300 		"/>
		<polygon fill="#3DB9CE" points="296.9,300 600,148.5 600,147.9 295.8,300 		"/>
		<polygon fill="#3DB9CE" points="265.8,300 600,132.9 600,132.3 264.7,300 		"/>
		<polygon fill="#3DB9CE" points="288,300 600,144 600,143.5 286.9,300 		"/>
		<polygon fill="#3DB9CE" points="292.5,300 600,146.2 600,145.7 291.4,300 		"/>
		<polygon fill="#3DB9CE" points="239.1,300 600,119.6 600,119 238,300 		"/>
		<polygon fill="#3DB9CE" points="243.6,300 600,121.8 600,121.2 242.4,300 		"/>
		<polygon fill="#3DB9CE" points="261.4,300 600,130.7 600,130.1 260.2,300 		"/>
		<polygon fill="#3DB9CE" points="234.7,300 600,117.3 600,116.8 233.5,300 		"/>
		<polygon fill="#3DB9CE" points="230.2,300 600,115.1 600,114.5 229.1,300 		"/>
		<polygon fill="#3DB9CE" points="256.9,300 600,128.5 600,127.9 255.8,300 		"/>
		<polygon fill="#3DB9CE" points="248,300 600,124 600,123.4 246.9,300 		"/>
		<polygon fill="#3DB9CE" points="252.5,300 600,126.2 600,125.7 251.3,300 		"/>
		<polygon fill="#3DB9CE" points="181.3,300 600,90.6 600,90.1 180.2,300 		"/>
		<polygon fill="#3DB9CE" points="47.8,300 600,23.9 600,23.4 46.7,300 		"/>
		<polygon fill="#3DB9CE" points="52.3,300 600,26.1 600,25.6 51.2,300 		"/>
		<polygon fill="#3DB9CE" points="43.4,300 600,21.7 600,21.1 42.3,300 		"/>
		<polygon fill="#3DB9CE" points="56.7,300 600,28.4 600,27.8 55.6,300 		"/>
		<polygon fill="#3DB9CE" points="61.2,300 600,30.6 600,30 60.1,300 		"/>
		<polygon fill="#3DB9CE" points="38.9,300 600,19.5 600,18.9 37.8,300 		"/>
		<polygon fill="#3DB9CE" points="70.1,300 600,35 600,34.5 69,300 		"/>
		<polygon fill="#3DB9CE" points="65.6,300 600,32.8 600,32.3 64.5,300 		"/>
		<polygon fill="#3DB9CE" points="16.7,300 600,8.3 600,7.8 15.6,300 		"/>
		<polygon fill="#3DB9CE" points="74.5,300 600,37.3 600,36.7 73.4,300 		"/>
		<polygon fill="#3DB9CE" points="12.2,300 600,6.1 600,5.6 11.1,300 		"/>
		<polygon fill="#3DB9CE" points="34.5,300 600,17.2 600,16.7 33.4,300 		"/>
		<polygon fill="#3DB9CE" points="7.8,300 600,3.9 600,3.3 6.7,300 		"/>
		<polygon fill="#3DB9CE" points="150.1,300 600,75.1 600,74.5 149,300 		"/>
		<polygon fill="#3DB9CE" points="21.1,300 600,10.6 600,10 20,300 		"/>
		<polygon fill="#3DB9CE" points="25.6,300 600,12.8 600,12.2 24.5,300 		"/>
		<polygon fill="#3DB9CE" points="30,300 600,15 600,14.5 28.9,300 		"/>
		<polygon fill="#3DB9CE" points="123.4,300 600,61.7 600,61.2 122.3,300 		"/>
		<polygon fill="#3DB9CE" points="127.9,300 600,63.9 600,63.4 126.8,300 		"/>
		<polygon fill="#3DB9CE" points="119,300 600,59.5 600,58.9 117.9,300 		"/>
		<polygon fill="#3DB9CE" points="132.3,300 600,66.2 600,65.6 131.2,300 		"/>
		<polygon fill="#3DB9CE" points="136.8,300 600,68.4 600,67.8 135.7,300 		"/>
		<polygon fill="#3DB9CE" points="145.7,300 600,72.8 600,72.3 144.6,300 		"/>
		<polygon fill="#3DB9CE" points="114.5,300 600,57.3 600,56.7 113.4,300 		"/>
		<polygon fill="#3DB9CE" points="141.2,300 600,70.6 600,70.1 140.1,300 		"/>
		<polygon fill="#3DB9CE" points="101.2,300 600,50.6 600,50 100.1,300 		"/>
		<polygon fill="#3DB9CE" points="87.9,300 600,43.9 600,43.4 86.7,300 		"/>
		<polygon fill="#3DB9CE" points="92.3,300 600,46.2 600,45.6 91.2,300 		"/>
		<polygon fill="#3DB9CE" points="83.4,300 600,41.7 600,41.1 82.3,300 		"/>
		<polygon fill="#3DB9CE" points="105.7,300 600,52.8 600,52.3 104.5,300 		"/>
		<polygon fill="#3DB9CE" points="110.1,300 600,55.1 600,54.5 109,300 		"/>
		<polygon fill="#3DB9CE" points="79,300 600,39.5 600,38.9 77.9,300 		"/>
		<polygon fill="#3DB9CE" points="96.8,300 600,48.4 600,47.8 95.6,300 		"/>
		<polygon fill="#3DB9CE" points="372.6,300 600,186.3 600,185.7 371.5,300 		"/>
		<polygon fill="#3DB9CE" points="501.6,300 600,250.8 600,250.2 500.5,300 		"/>
		<polygon fill="#3DB9CE" points="506,300 600,253 600,252.5 504.9,300 		"/>
		<polygon fill="#3DB9CE" points="510.5,300 600,255.2 600,254.7 509.4,300 		"/>
		<polygon fill="#3DB9CE" points="497.1,300 600,248.6 600,248 496,300 		"/>
		<polygon fill="#3DB9CE" points="492.7,300 600,246.3 600,245.8 491.6,300 		"/>
		<polygon fill="#3DB9CE" points="523.8,300 600,261.9 600,261.4 522.7,300 		"/>
		<polygon fill="#3DB9CE" points="305.8,300 600,152.9 600,152.4 304.7,300 		"/>
		<polygon fill="#3DB9CE" points="514.9,300 600,257.5 600,256.9 513.8,300 		"/>
		<polygon fill="#3DB9CE" points="466,300 600,233 600,232.4 464.9,300 		"/>
		<polygon fill="#3DB9CE" points="470.4,300 600,235.2 600,234.7 469.3,300 		"/>
		<polygon fill="#3DB9CE" points="488.2,300 600,244.1 600,243.6 487.1,300 		"/>
		<polygon fill="#3DB9CE" points="461.5,300 600,230.8 600,230.2 460.4,300 		"/>
		<polygon fill="#3DB9CE" points="528.3,300 600,264.1 600,263.6 527.2,300 		"/>
		<polygon fill="#3DB9CE" points="483.8,300 600,241.9 600,241.3 482.7,300 		"/>
		<polygon fill="#3DB9CE" points="479.3,300 600,239.7 600,239.1 478.2,300 		"/>
		<polygon fill="#3DB9CE" points="474.9,300 600,237.4 600,236.9 473.8,300 		"/>
		<polygon fill="#3DB9CE" points="590.5,300 600,295.3 600,294.7 589.4,300 		"/>
		<polygon fill="#3DB9CE" points="577.2,300 600,288.6 600,288 576.1,300 		"/>
		<polygon fill="#3DB9CE" points="581.6,300 600,290.8 600,290.3 580.5,300 		"/>
		<polygon fill="#3DB9CE" points="532.7,300 600,266.4 600,265.8 531.6,300 		"/>
		<polygon fill="#3DB9CE" points="568.3,300 600,284.2 600,283.6 567.2,300 		"/>
		<polygon fill="#3DB9CE" points="586.1,300 600,293 600,292.5 585,300 		"/>
		<polygon fill="#3DB9CE" points="599.4,300 600,299.7 600,299.2 598.3,300 		"/>
		<polygon fill="#3DB9CE" points="457.1,300 600,228.5 600,228 456,300 		"/>
		<polygon fill="#3DB9CE" points="595,300 600,297.5 600,296.9 593.9,300 		"/>
		<polygon fill="#3DB9CE" points="572.7,300 600,286.4 600,285.8 571.6,300 		"/>
		<polygon fill="#3DB9CE" points="541.6,300 600,270.8 600,270.2 540.5,300 		"/>
		<polygon fill="#3DB9CE" points="563.9,300 600,281.9 600,281.4 562.7,300 		"/>
		<polygon fill="#3DB9CE" points="537.2,300 600,268.6 600,268 536,300 		"/>
		<polygon fill="#3DB9CE" points="546.1,300 600,273 600,272.5 544.9,300 		"/>
		<polygon fill="#3DB9CE" points="559.4,300 600,279.7 600,279.1 558.3,300 		"/>
		<polygon fill="#3DB9CE" points="550.5,300 600,275.3 600,274.7 549.4,300 		"/>
		<polygon fill="#3DB9CE" points="555,300 600,277.5 600,276.9 553.8,300 		"/>
		<polygon fill="#3DB9CE" points="519.4,300 600,259.7 600,259.1 518.3,300 		"/>
		<polygon fill="#3DB9CE" points="350.3,300 600,175.2 600,174.6 349.2,300 		"/>
		<polygon fill="#3DB9CE" points="354.8,300 600,177.4 600,176.8 353.7,300 		"/>
		<polygon fill="#3DB9CE" points="359.2,300 600,179.6 600,179.1 358.1,300 		"/>
		<polygon fill="#3DB9CE" points="345.9,300 600,172.9 600,172.4 344.8,300 		"/>
		<polygon fill="#3DB9CE" points="452.6,300 600,226.3 600,225.8 451.5,300 		"/>
		<polygon fill="#3DB9CE" points="3.3,300 600,1.7 600,1.1 2.2,300 		"/>
		<polygon fill="#3DB9CE" points="363.7,300 600,181.8 600,181.3 362.6,300 		"/>
		<polygon fill="#3DB9CE" points="368.1,300 600,184.1 600,183.5 367,300 		"/>
		<polygon fill="#3DB9CE" points="328.1,300 600,164 600,163.5 327,300 		"/>
		<polygon fill="#3DB9CE" points="319.2,300 600,159.6 600,159 318.1,300 		"/>
		<polygon fill="#3DB9CE" points="314.7,300 600,157.4 600,156.8 313.6,300 		"/>
		<polygon fill="#3DB9CE" points="310.3,300 600,155.1 600,154.6 309.2,300 		"/>
		<polygon fill="#3DB9CE" points="377,300 600,188.5 600,188 375.9,300 		"/>
		<polygon fill="#3DB9CE" points="332.5,300 600,166.3 600,165.7 331.4,300 		"/>
		<polygon fill="#3DB9CE" points="337,300 600,168.5 600,167.9 335.9,300 		"/>
		<polygon fill="#3DB9CE" points="323.6,300 600,161.8 600,161.3 322.5,300 		"/>
		<polygon fill="#3DB9CE" points="341.4,300 600,170.7 600,170.2 340.3,300 		"/>
		<polygon fill="#3DB9CE" points="430.4,300 600,215.2 600,214.6 429.3,300 		"/>
		<polygon fill="#3DB9CE" points="417.1,300 600,208.5 600,208 415.9,300 		"/>
		<polygon fill="#3DB9CE" points="425.9,300 600,213 600,212.4 424.8,300 		"/>
		<polygon fill="#3DB9CE" points="381.5,300 600,190.7 600,190.2 380.4,300 		"/>
		<polygon fill="#3DB9CE" points="434.8,300 600,217.4 600,216.9 433.7,300 		"/>
		<polygon fill="#3DB9CE" points="448.2,300 600,224.1 600,223.5 447.1,300 		"/>
		<polygon fill="#3DB9CE" points="439.3,300 600,219.6 600,219.1 438.2,300 		"/>
		<polygon fill="#3DB9CE" points="443.7,300 600,221.9 600,221.3 442.6,300 		"/>
		<polygon fill="#3DB9CE" points="421.5,300 600,210.7 600,210.2 420.4,300 		"/>
		<polygon fill="#3DB9CE" points="390.4,300 600,195.2 600,194.6 389.2,300 		"/>
		<polygon fill="#3DB9CE" points="394.8,300 600,197.4 600,196.8 393.7,300 		"/>
		<polygon fill="#3DB9CE" points="385.9,300 600,193 600,192.4 384.8,300 		"/>
		<polygon fill="#3DB9CE" points="399.3,300 600,199.6 600,199.1 398.1,300 		"/>
		<polygon fill="#3DB9CE" points="408.2,300 600,204.1 600,203.5 407,300 		"/>
		<polygon fill="#3DB9CE" points="412.6,300 600,206.3 600,205.7 411.5,300 		"/>
		<polygon fill="#3DB9CE" points="403.7,300 600,201.9 600,201.3 402.6,300 		"/>
		<polygon fill="#3DB9CE" points="0,143.7 287.5,0 286.4,0 0,143.2 		"/>
		<polygon fill="#3DB9CE" points="0,101.5 203,0 201.9,0 0,100.9 		"/>
		<polygon fill="#3DB9CE" points="0,99.3 198.5,0 197.4,0 0,98.7 		"/>
		<polygon fill="#3DB9CE" points="0,97 194.1,0 193,0 0,96.5 		"/>
		<polygon fill="#3DB9CE" points="0,74.8 149.6,0 148.5,0 0,74.2 		"/>
		<polygon fill="#3DB9CE" points="0,105.9 211.9,0 210.8,0 0,105.4 		"/>
		<polygon fill="#3DB9CE" points="0,108.2 216.3,0 215.2,0 0,107.6 		"/>
		<polygon fill="#3DB9CE" points="0,103.7 207.4,0 206.3,0 0,103.2 		"/>
		<polygon fill="#3DB9CE" points="0,92.6 185.2,0 184.1,0 0,92 		"/>
		<polygon fill="#3DB9CE" points="0,81.5 162.9,0 161.8,0 0,80.9 		"/>
		<polygon fill="#3DB9CE" points="0,110.4 220.8,0 219.7,0 0,109.8 		"/>
		<polygon fill="#3DB9CE" points="0,79.2 158.5,0 157.4,0 0,78.7 		"/>
		<polygon fill="#3DB9CE" points="0,90.4 180.7,0 179.6,0 0,89.8 		"/>
		<polygon fill="#3DB9CE" points="0,77 154,0 152.9,0 0,76.5 		"/>
		<polygon fill="#3DB9CE" points="0,88.1 176.3,0 175.2,0 0,87.6 		"/>
		<polygon fill="#3DB9CE" points="0,83.7 167.4,0 166.3,0 0,83.1 		"/>
		<polygon fill="#3DB9CE" points="0,85.9 171.8,0 170.7,0 0,85.4 		"/>
		<polygon fill="#3DB9CE" points="0,94.8 189.6,0 188.5,0 0,94.3 		"/>
		<polygon fill="#3DB9CE" points="0,137.1 274.1,0 273,0 0,136.5 		"/>
		<polygon fill="#3DB9CE" points="0,139.3 278.6,0 277.5,0 0,138.7 		"/>
		<polygon fill="#3DB9CE" points="0,134.8 269.7,0 268.6,0 0,134.3 		"/>
		<polygon fill="#3DB9CE" points="0,132.6 265.2,0 264.1,0 0,132.1 		"/>
		<polygon fill="#3DB9CE" points="0,146 291.9,0 290.8,0 0,145.4 		"/>
		<polygon fill="#3DB9CE" points="0,141.5 283,0 281.9,0 0,141 		"/>
		<polygon fill="#3DB9CE" points="0,148.2 296.4,0 295.3,0 0,147.6 		"/>
		<polygon fill="#3DB9CE" points="0,130.4 260.8,0 259.7,0 0,129.8 		"/>
		<polygon fill="#3DB9CE" points="0,112.6 225.2,0 224.1,0 0,112.1 		"/>
		<polygon fill="#3DB9CE" points="0,119.3 238.6,0 237.4,0 0,118.7 		"/>
		<polygon fill="#3DB9CE" points="0,117.1 234.1,0 233,0 0,116.5 		"/>
		<polygon fill="#3DB9CE" points="0,128.2 256.4,0 255.2,0 0,127.6 		"/>
		<polygon fill="#3DB9CE" points="0,150.4 300.8,0 299.7,0 0,149.9 		"/>
		<polygon fill="#3DB9CE" points="0,126 251.9,0 250.8,0 0,125.4 		"/>
		<polygon fill="#3DB9CE" points="0,121.5 243,0 241.9,0 0,120.9 		"/>
		<polygon fill="#3DB9CE" points="0,123.7 247.5,0 246.3,0 0,123.2 		"/>
		<polygon fill="#3DB9CE" points="0,114.8 229.7,0 228.5,0 0,114.3 		"/>
		<polygon fill="#3DB9CE" points="0,23.6 47.3,0 46.2,0 0,23.1 		"/>
		<polygon fill="#3DB9CE" points="0,25.9 51.7,0 50.6,0 0,25.3 		"/>
		<polygon fill="#3DB9CE" points="0,21.4 42.8,0 41.7,0 0,20.9 		"/>
		<polygon fill="#3DB9CE" points="0,19.2 38.4,0 37.3,0 0,18.6 		"/>
		<polygon fill="#3DB9CE" points="0,34.8 69.5,0 68.4,0 0,34.2 		"/>
		<polygon fill="#3DB9CE" points="0,28.1 56.2,0 55.1,0 0,27.5 		"/>
		<polygon fill="#3DB9CE" points="0,32.5 65.1,0 64,0 0,32 		"/>
		<polygon fill="#3DB9CE" points="0,30.3 60.6,0 59.5,0 0,29.8 		"/>
		<polygon fill="#3DB9CE" points="0,17 33.9,0 32.8,0 0,16.4 		"/>
		<polygon fill="#3DB9CE" points="0,5.8 11.7,0 10.6,0 0,5.3 		"/>
		<polygon fill="#3DB9CE" points="0,3.6 7.2,0 6.1,0 0,3.1 		"/>
		<polygon fill="#3DB9CE" points="0,1.4 2.8,0 1.7,0 0,0.8 		"/>
		<polygon fill="#3DB9CE" points="0,12.5 25,0 23.9,0 0,12 		"/>
		<polygon fill="#3DB9CE" points="0,8.1 16.1,0 15,0 0,7.5 		"/>
		<polygon fill="#3DB9CE" points="0,14.7 29.5,0 28.4,0 0,14.2 		"/>
		<polygon fill="#3DB9CE" points="0,10.3 20.6,0 19.5,0 0,9.7 		"/>
		<polygon fill="#3DB9CE" points="0,50.3 100.7,0 99.5,0 0,49.8 		"/>
		<polygon fill="#3DB9CE" points="0,59.2 118.4,0 117.3,0 0,58.7 		"/>
		<polygon fill="#3DB9CE" points="0,63.7 127.3,0 126.2,0 0,63.1 		"/>
		<polygon fill="#3DB9CE" points="0,37 74,0 72.9,0 0,36.4 		"/>
		<polygon fill="#3DB9CE" points="0,57 114,0 112.9,0 0,56.4 		"/>
		<polygon fill="#3DB9CE" points="0,54.8 109.6,0 108.4,0 0,54.2 		"/>
		<polygon fill="#3DB9CE" points="0,70.3 140.7,0 139.6,0 0,69.8 		"/>
		<polygon fill="#3DB9CE" points="0,68.1 136.2,0 135.1,0 0,67.6 		"/>
		<polygon fill="#3DB9CE" points="0,65.9 131.8,0 130.7,0 0,65.3 		"/>
		<polygon fill="#3DB9CE" points="0,61.4 122.9,0 121.8,0 0,60.9 		"/>
		<polygon fill="#3DB9CE" points="0,43.7 87.3,0 86.2,0 0,43.1 		"/>
		<polygon fill="#3DB9CE" points="0,299.4 598.9,0 597.8,0 0,298.9 		"/>
		<polygon fill="#3DB9CE" points="0,39.2 78.4,0 77.3,0 0,38.6 		"/>
		<polygon fill="#3DB9CE" points="0,48.1 96.2,0 95.1,0 0,47.5 		"/>
		<polygon fill="#3DB9CE" points="0,72.6 145.1,0 144,0 0,72 		"/>
		<polygon fill="#3DB9CE" points="0,45.9 91.8,0 90.6,0 0,45.3 		"/>
		<polygon fill="#3DB9CE" points="0,52.6 105.1,0 104,0 0,52 		"/>
		<polygon fill="#3DB9CE" points="0,41.4 82.9,0 81.7,0 0,40.9 		"/>
		<polygon fill="#3DB9CE" points="0,243.8 487.7,0 486.6,0 0,243.3 		"/>
		<polygon fill="#3DB9CE" points="0,261.6 523.3,0 522.2,0 0,261.1 		"/>
		<polygon fill="#3DB9CE" points="0,248.3 496.6,0 495.5,0 0,247.7 		"/>
		<polygon fill="#3DB9CE" points="0,152.6 305.3,0 304.2,0 0,152.1 		"/>
		<polygon fill="#3DB9CE" points="0,250.5 501,0 499.9,0 0,250 		"/>
		<polygon fill="#3DB9CE" points="0,259.4 518.8,0 517.7,0 0,258.9 		"/>
		<polygon fill="#3DB9CE" points="0,257.2 514.4,0 513.3,0 0,256.6 		"/>
		<polygon fill="#3DB9CE" points="0,255 509.9,0 508.8,0 0,254.4 		"/>
		<polygon fill="#3DB9CE" points="0,252.7 505.5,0 504.4,0 0,252.2 		"/>
		<polygon fill="#3DB9CE" points="0,232.7 465.4,0 464.3,0 0,232.2 		"/>
		<polygon fill="#3DB9CE" points="0,241.6 483.2,0 482.1,0 0,241.1 		"/>
		<polygon fill="#3DB9CE" points="0,228.3 456.5,0 455.4,0 0,227.7 		"/>
		<polygon fill="#3DB9CE" points="0,230.5 461,0 459.9,0 0,229.9 		"/>
		<polygon fill="#3DB9CE" points="0,239.4 478.8,0 477.7,0 0,238.8 		"/>
		<polygon fill="#3DB9CE" points="0,237.2 474.3,0 473.2,0 0,236.6 		"/>
		<polygon fill="#3DB9CE" points="0,234.9 469.9,0 468.8,0 0,234.4 		"/>
		<polygon fill="#3DB9CE" points="0,266.1 532.2,0 531,0 0,265.5 		"/>
		<polygon fill="#3DB9CE" points="0,288.3 576.6,0 575.5,0 0,287.8 		"/>
		<polygon fill="#3DB9CE" points="0,290.5 581.1,0 580,0 0,290 		"/>
		<polygon fill="#3DB9CE" points="0,286.1 572.2,0 571.1,0 0,285.5 		"/>
		<polygon fill="#3DB9CE" points="0,281.7 563.3,0 562.2,0 0,281.1 		"/>
		<polygon fill="#3DB9CE" points="0,283.9 567.7,0 566.6,0 0,283.3 		"/>
		<polygon fill="#3DB9CE" points="0,292.8 585.5,0 584.4,0 0,292.2 		"/>
		<polygon fill="#3DB9CE" points="0,297.2 594.4,0 593.3,0 0,296.7 		"/>
		<polygon fill="#3DB9CE" points="0,295 590,0 588.9,0 0,294.4 		"/>
		<polygon fill="#3DB9CE" points="0,263.9 527.7,0 526.6,0 0,263.3 		"/>
		<polygon fill="#3DB9CE" points="0,268.3 536.6,0 535.5,0 0,267.7 		"/>
		<polygon fill="#3DB9CE" points="0,226 452.1,0 451,0 0,225.5 		"/>
		<polygon fill="#3DB9CE" points="0,270.5 541.1,0 539.9,0 0,270 		"/>
		<polygon fill="#3DB9CE" points="0,272.8 545.5,0 544.4,0 0,272.2 		"/>
		<polygon fill="#3DB9CE" points="0,277.2 554.4,0 553.3,0 0,276.6 		"/>
		<polygon fill="#3DB9CE" points="0,279.4 558.9,0 557.7,0 0,278.9 		"/>
		<polygon fill="#3DB9CE" points="0,275 550,0 548.8,0 0,274.4 		"/>
		<polygon fill="#3DB9CE" points="0,246.1 492.1,0 491,0 0,245.5 		"/>
		<polygon fill="#3DB9CE" points="0,177.1 354.2,0 353.1,0 0,176.6 		"/>
		<polygon fill="#3DB9CE" points="0,174.9 349.8,0 348.7,0 0,174.3 		"/>
		<polygon fill="#3DB9CE" points="0,179.3 358.7,0 357.6,0 0,178.8 		"/>
		<polygon fill="#3DB9CE" points="0,170.4 340.9,0 339.8,0 0,169.9 		"/>
		<polygon fill="#3DB9CE" points="0,172.7 345.3,0 344.2,0 0,172.1 		"/>
		<polygon fill="#3DB9CE" points="0,181.6 363.1,0 362,0 0,181 		"/>
		<polygon fill="#3DB9CE" points="0,186 372,0 370.9,0 0,185.5 		"/>
		<polygon fill="#3DB9CE" points="0,183.8 367.6,0 366.5,0 0,183.2 		"/>
		<polygon fill="#3DB9CE" points="0,168.2 336.4,0 335.3,0 0,167.7 		"/>
		<polygon fill="#3DB9CE" points="0,159.3 318.6,0 317.5,0 0,158.8 		"/>
		<polygon fill="#3DB9CE" points="0,157.1 314.2,0 313.1,0 0,156.5 		"/>
		<polygon fill="#3DB9CE" points="0,154.9 309.7,0 308.6,0 0,154.3 		"/>
		<polygon fill="#3DB9CE" points="0,163.8 327.5,0 326.4,0 0,163.2 		"/>
		<polygon fill="#3DB9CE" points="0,166 332,0 330.9,0 0,165.4 		"/>
		<polygon fill="#3DB9CE" points="0,161.5 323.1,0 322,0 0,161 		"/>
		<polygon fill="#3DB9CE" points="0,188.2 376.5,0 375.4,0 0,187.7 		"/>
		<polygon fill="#3DB9CE" points="0,192.7 385.4,0 384.2,0 0,192.1 		"/>
		<polygon fill="#3DB9CE" points="0,212.7 425.4,0 424.3,0 0,212.1 		"/>
		<polygon fill="#3DB9CE" points="0,214.9 429.8,0 428.7,0 0,214.4 		"/>
		<polygon fill="#3DB9CE" points="0,210.5 420.9,0 419.8,0 0,209.9 		"/>
		<polygon fill="#3DB9CE" points="0,221.6 443.2,0 442.1,0 0,221 		"/>
		<polygon fill="#3DB9CE" points="0,208.2 416.5,0 415.4,0 0,207.7 		"/>
		<polygon fill="#3DB9CE" points="0,219.4 438.7,0 437.6,0 0,218.8 		"/>
		<polygon fill="#3DB9CE" points="0,217.1 434.3,0 433.2,0 0,216.6 		"/>
		<polygon fill="#3DB9CE" points="0,190.5 380.9,0 379.8,0 0,189.9 		"/>
		<polygon fill="#3DB9CE" points="0,197.1 394.3,0 393.1,0 0,196.6 		"/>
		<polygon fill="#3DB9CE" points="0,206 412.1,0 410.9,0 0,205.5 		"/>
		<polygon fill="#3DB9CE" points="0,223.8 447.6,0 446.5,0 0,223.3 		"/>
		<polygon fill="#3DB9CE" points="0,194.9 389.8,0 388.7,0 0,194.3 		"/>
		<polygon fill="#3DB9CE" points="0,199.4 398.7,0 397.6,0 0,198.8 		"/>
		<polygon fill="#3DB9CE" points="0,203.8 407.6,0 406.5,0 0,203.2 		"/>
		<polygon fill="#3DB9CE" points="0,201.6 403.2,0 402,0 0,201 		"/>
	</g>
</g>
</svg>
