<?xml version="1.0" encoding="utf-8"?>
<!-- Generator: Adobe Illustrator 18.1.0, SVG Export Plug-In . SVG Version: 6.00 Build 0)  -->
<!DOCTYPE svg PUBLIC "-//W3C//DTD SVG 1.1//EN" "http://www.w3.org/Graphics/SVG/1.1/DTD/svg11.dtd">
<svg version="1.1" xmlns="http://www.w3.org/2000/svg" xmlns:xlink="http://www.w3.org/1999/xlink" x="0px" y="0px"
	 viewBox="0 0 307.9 318.4" enable-background="new 0 0 307.9 318.4" xml:space="preserve">
<g id="Calque_2">
	
		<radialGradient id="SVGID_1_" cx="32.0998" cy="24.1281" r="446.314" gradientTransform="matrix(0.7413 0 0 0.7646 29.1244 31.0552)" gradientUnits="userSpaceOnUse">
		<stop  offset="0" style="stop-color:#3B73AD"/>
		<stop  offset="1" style="stop-color:#002851"/>
	</radialGradient>
	<rect x="-14.2" y="-14.2" fill="url(#SVGID_1_)" width="336.2" height="346.8"/>
</g>
<g id="Calque_1">
	
		<image overflow="visible" opacity="0.3" width="263" height="245" xlink:href="358A866D36DDB483.png"  transform="matrix(1 0 0 1 20.9411 41.209)">
	</image>
	<g>
		<g>
			<path fill="#C3DBF0" d="M139,100.3c0,0-32.2,0.6-38,21.8c-7.7,28.2,4.9,43,27.5,53.5c0,0-20.4-22.8-13.4-45.8
				c4.9-16.2,12.7-24.7,33.1-29.6H139z"/>
			<path fill="#A5C7DE" d="M106.8,122.8c5.1-18.4,31.3-21.4,41.1-22.4H139c0,0-32.2,0.6-38,21.8c-7.2,26.2,3.2,40.8,22.8,51.2
				C109.9,162.4,100.4,146,106.8,122.8z"/>
			<polygon fill="#C3DBF0" points="85.3,143.4 85.8,141.6 86.3,143.3 87.7,143.6 86.5,144.3 86.9,146 85.6,144.8 84,146.1 
				84.4,144.3 83.3,143 			"/>
			<polygon fill="#C3DBF0" points="166.2,86.4 167.3,85 167.2,86.7 168.4,87.5 167,87.8 166.7,89.4 165.9,87.9 164,88.5 165,87 
				164.5,85.4 			"/>
			<polygon fill="#C3DBF0" points="147.4,135.9 146,132.8 148.7,134.7 151.2,133.5 150.3,136 152.7,138 149.4,137.8 148.7,141.5 
				147.1,138.4 144,137.8 			"/>
			<polygon opacity="0.5" fill="#C3DBF0" points="125.4,83.3 122.8,81.3 125.8,81.6 127.3,79.5 127.7,81.9 130.7,82.4 127.9,83.8 
				129.1,87.2 126.4,85.5 123.5,86.4 			"/>
			<polygon opacity="0.4" fill="#C3DBF0" points="94.2,210.8 92.6,208.6 94.9,209.6 96.6,208.3 96.3,210.3 98.5,211.4 96,211.8 
				96.1,214.7 94.4,212.7 91.9,212.7 			"/>
			<polygon fill="#C3DBF0" points="81.4,118.3 79.2,117.1 81.6,117 82.4,115.2 83.1,117 85.4,117 83.4,118.4 84.7,120.8 82.4,119.8 
				80.4,120.9 			"/>
			<polygon fill="#C3DBF0" points="95.7,104.3 97,104.5 95.9,104.9 95.7,105.9 95.2,105.1 94,105.5 94.8,104.5 93.8,103.5 95,103.7 
				95.9,102.9 			"/>
			<polygon opacity="0.5" fill="#C3DBF0" points="174.1,117.6 175.3,117.9 174.2,118.3 174,119.3 173.5,118.5 172.4,118.8 
				173.1,117.9 172.1,116.9 173.4,117 174.2,116.2 			"/>
			<polygon opacity="0.5" fill="#C3DBF0" points="160.6,264.8 161.3,265 160.7,265.2 160.6,265.8 160.2,265.3 159.5,265.5 160,265 
				159.4,264.3 160.1,264.4 160.7,263.9 			"/>
			<polygon opacity="0.5" fill="#C3DBF0" points="63.3,256.6 64,256.8 63.4,257 63.2,257.6 62.9,257.2 62.2,257.4 62.7,256.8 
				62.1,256.2 62.8,256.3 63.4,255.8 			"/>
			<polygon opacity="0.5" fill="#C3DBF0" points="262.8,93.8 263.6,93.9 262.9,94.2 262.8,94.8 262.5,94.3 261.8,94.5 262.2,93.9 
				261.6,93.3 262.4,93.4 262.9,92.9 			"/>
			<polygon opacity="0.5" fill="#C3DBF0" points="96.9,68.7 97.7,68.8 97,69.1 96.9,69.7 96.6,69.2 95.9,69.4 96.3,68.8 95.7,68.2 
				96.5,68.3 97,67.8 			"/>
			<polygon opacity="0.5" fill="#C3DBF0" points="216.3,105.4 217.1,105.6 216.4,105.8 216.3,106.4 215.9,106 215.2,106.2 
				215.7,105.6 215.1,105 215.9,105.1 216.4,104.6 			"/>
			<polygon opacity="0.5" fill="#C3DBF0" points="109.8,52.8 110.6,52.9 109.9,53.2 109.8,53.8 109.4,53.3 108.7,53.5 109.2,52.9 
				108.6,52.3 109.4,52.4 109.9,51.9 			"/>
			<polygon opacity="0.5" fill="#C3DBF0" points="62.7,99.9 63.4,100.1 62.7,100.3 62.6,100.9 62.3,100.5 61.6,100.7 62.1,100.1 
				61.5,99.4 62.2,99.5 62.7,99.1 			"/>
			<polygon opacity="0.5" fill="#C3DBF0" points="32.7,203.4 33.4,203.5 32.7,203.8 32.6,204.4 32.3,203.9 31.6,204.1 32.1,203.5 
				31.5,202.9 32.2,203 32.8,202.5 			"/>
			<polygon opacity="0.5" fill="#C3DBF0" points="237,62.3 238.2,62.6 237.1,63 236.9,64 236.4,63.2 235.2,63.5 236,62.6 235,61.6 
				236.3,61.7 237.1,60.9 			"/>
			<polygon opacity="0.5" fill="#C3DBF0" points="240,151.7 241.3,151.9 240.2,152.4 240,153.4 239.4,152.6 238.3,152.9 
				239.1,151.9 238.1,150.9 239.3,151.1 240.2,150.3 			"/>
			<polygon opacity="0.5" fill="#C3DBF0" points="187.6,73 188.8,73.2 187.7,73.6 187.5,74.6 187,73.8 185.8,74.2 186.6,73.2 
				185.6,72.2 186.8,72.3 187.7,71.5 			"/>
			<polygon opacity="0.5" fill="#C3DBF0" points="87.6,86.8 89.1,87.1 87.8,87.5 87.6,88.7 87,87.8 85.7,88.2 86.5,87.1 85.4,85.9 
				86.8,86.1 87.8,85.2 			"/>
			<polygon opacity="0.5" fill="#C3DBF0" points="152.1,178 153.9,178.3 152.3,178.9 152.1,180.3 151.3,179.2 149.7,179.7 
				150.8,178.3 149.4,176.9 151.1,177.1 152.3,175.9 			"/>
			<polygon opacity="0.5" fill="#C3DBF0" points="61.9,174.1 63.4,174.4 62.1,174.9 61.9,176 61.2,175.1 59.9,175.5 60.8,174.4 
				59.7,173.2 61.1,173.4 62.1,172.5 			"/>
			<polygon opacity="0.5" fill="#C3DBF0" points="48.4,66.6 49.8,67.1 48.5,67.3 48.1,68.4 47.6,67.5 46.2,67.6 47.3,66.7 
				46.3,65.4 47.7,65.8 48.8,65 			"/>
			<polygon opacity="0.5" fill="#C3DBF0" points="51.1,127.1 52.9,127.8 51.1,128.1 50.6,129.6 49.9,128.3 48.1,128.5 49.5,127.2 
				48.2,125.5 50.1,126 51.6,125 			"/>
			<polygon opacity="0.5" fill="#C3DBF0" points="157.6,204.7 158.9,205.4 157.5,205.5 157,206.5 156.7,205.5 155.3,205.5 
				156.5,204.7 155.7,203.2 157.1,203.8 158.3,203.2 			"/>
			<polygon opacity="0.5" fill="#C3DBF0" points="101.1,174.7 102.3,175.3 101.1,175.4 100.6,176.3 100.3,175.4 99.1,175.3 
				100.1,174.6 99.5,173.4 100.6,173.9 101.7,173.4 			"/>
			<polygon opacity="0.5" fill="#C3DBF0" points="121,239.2 122.1,239.8 120.9,239.9 120.4,240.8 120.1,239.9 118.9,239.9 
				120,239.2 119.3,237.9 120.5,238.4 121.5,237.9 			"/>
			<polygon opacity="0.5" fill="#C3DBF0" points="54.7,217.3 55.9,217.9 54.7,218 54.2,218.9 53.9,218 52.7,218 53.7,217.3 
				53.1,216 54.2,216.5 55.3,216 			"/>
			<polygon fill="#C3DBF0" points="130,154.1 131.1,154.6 130,154.8 129.6,155.8 129.2,154.9 128,155 129,154.2 128.2,153 
				129.4,153.4 130.4,152.8 			"/>
		</g>
	</g>
</g>
<g id="Calque_3">
	<g opacity="0.5">
		<polygon fill="#007390" points="72.5,333.9 319.1,76 319.1,75.4 71.9,333.9 		"/>
		<polygon fill="#007390" points="94.7,333.9 319.1,99.2 319.1,98.5 94.1,333.9 		"/>
		<polygon fill="#007390" points="102.1,333.9 319.1,106.9 319.1,106.3 101.5,333.9 		"/>
		<polygon fill="#007390" points="111.9,333.9 319.1,117.2 319.1,116.6 111.3,333.9 		"/>
		<polygon fill="#007390" points="99.6,333.9 319.1,104.3 319.1,103.7 99,333.9 		"/>
		<polygon fill="#007390" points="109.5,333.9 319.1,114.6 319.1,114 108.8,333.9 		"/>
		<polygon fill="#007390" points="107,333.9 319.1,112.1 319.1,111.4 106.4,333.9 		"/>
		<polygon fill="#007390" points="104.5,333.9 319.1,109.5 319.1,108.8 103.9,333.9 		"/>
		<polygon fill="#007390" points="97.1,333.9 319.1,101.8 319.1,101.1 96.5,333.9 		"/>
		<polygon fill="#007390" points="77.4,333.9 319.1,81.2 319.1,80.5 76.8,333.9 		"/>
		<polygon fill="#007390" points="79.9,333.9 319.1,83.7 319.1,83.1 79.3,333.9 		"/>
		<polygon fill="#007390" points="75,333.9 319.1,78.6 319.1,77.9 74.4,333.9 		"/>
		<polygon fill="#007390" points="153.8,333.9 319.1,161 319.1,160.4 153.2,333.9 		"/>
		<polygon fill="#007390" points="89.8,333.9 319.1,94 319.1,93.4 89.1,333.9 		"/>
		<polygon fill="#007390" points="84.8,333.9 319.1,88.9 319.1,88.2 84.2,333.9 		"/>
		<polygon fill="#007390" points="82.4,333.9 319.1,86.3 319.1,85.7 81.8,333.9 		"/>
		<polygon fill="#007390" points="92.2,333.9 319.1,96.6 319.1,96 91.6,333.9 		"/>
		<polygon fill="#007390" points="141.5,333.9 319.1,148.1 319.1,147.5 140.9,333.9 		"/>
		<polygon fill="#007390" points="143.9,333.9 319.1,150.7 319.1,150.1 143.3,333.9 		"/>
		<polygon fill="#007390" points="139,333.9 319.1,145.5 319.1,144.9 138.4,333.9 		"/>
		<polygon fill="#007390" points="136.5,333.9 319.1,143 319.1,142.3 135.9,333.9 		"/>
		<polygon fill="#007390" points="151.3,333.9 319.1,158.4 319.1,157.8 150.7,333.9 		"/>
		<polygon fill="#007390" points="134.1,333.9 319.1,140.4 319.1,139.8 133.5,333.9 		"/>
		<polygon fill="#007390" points="146.4,333.9 319.1,153.3 319.1,152.6 145.8,333.9 		"/>
		<polygon fill="#007390" points="148.9,333.9 319.1,155.9 319.1,155.2 148.2,333.9 		"/>
		<polygon fill="#007390" points="119.3,333.9 319.1,124.9 319.1,124.3 118.7,333.9 		"/>
		<polygon fill="#007390" points="121.8,333.9 319.1,127.5 319.1,126.9 121.2,333.9 		"/>
		<polygon fill="#007390" points="131.6,333.9 319.1,137.8 319.1,137.2 131,333.9 		"/>
		<polygon fill="#007390" points="116.8,333.9 319.1,122.4 319.1,121.7 116.2,333.9 		"/>
		<polygon fill="#007390" points="114.4,333.9 319.1,119.8 319.1,119.1 113.8,333.9 		"/>
		<polygon fill="#007390" points="129.2,333.9 319.1,135.2 319.1,134.6 128.5,333.9 		"/>
		<polygon fill="#007390" points="124.2,333.9 319.1,130.1 319.1,129.4 123.6,333.9 		"/>
		<polygon fill="#007390" points="126.7,333.9 319.1,132.7 319.1,132 126.1,333.9 		"/>
		<polygon fill="#007390" points="87.3,333.9 319.1,91.5 319.1,90.8 86.7,333.9 		"/>
		<polygon fill="#007390" points="13.4,333.9 319.1,14.2 319.1,13.5 12.8,333.9 		"/>
		<polygon fill="#007390" points="15.9,333.9 319.1,16.8 319.1,16.1 15.3,333.9 		"/>
		<polygon fill="#007390" points="11,333.9 319.1,11.6 319.1,11 10.3,333.9 		"/>
		<polygon fill="#007390" points="18.3,333.9 319.1,19.3 319.1,18.7 17.7,333.9 		"/>
		<polygon fill="#007390" points="20.8,333.9 319.1,21.9 319.1,21.3 20.2,333.9 		"/>
		<polygon fill="#007390" points="8.5,333.9 319.1,9 319.1,8.4 7.9,333.9 		"/>
		<polygon fill="#007390" points="25.7,333.9 319.1,27.1 319.1,26.4 25.1,333.9 		"/>
		<polygon fill="#007390" points="23.3,333.9 319.1,24.5 319.1,23.8 22.6,333.9 		"/>
		<polygon fill="#007390" points="-3.8,333.9 319.1,-3.9 319.1,-4.5 -4.4,333.9 		"/>
		<polygon fill="#007390" points="28.2,333.9 319.1,29.6 319.1,29 27.6,333.9 		"/>
		<polygon fill="#007390" points="-6.3,333.9 319.1,-6.4 319.1,-7.1 -6.9,333.9 		"/>
		<polygon fill="#007390" points="6,333.9 319.1,6.4 319.1,5.8 5.4,333.9 		"/>
		<polygon fill="#007390" points="-8.8,333.9 319.1,-9 319.1,-9.6 -9.4,333.9 		"/>
		<polygon fill="#007390" points="70.1,333.9 319.1,73.4 319.1,72.8 69.4,333.9 		"/>
		<polygon fill="#007390" points="-1.4,333.9 319.1,-1.3 319.1,-1.9 -2,333.9 		"/>
		<polygon fill="#007390" points="1.1,333.9 319.1,1.3 319.1,0.7 0.5,333.9 		"/>
		<polygon fill="#007390" points="3.6,333.9 319.1,3.9 319.1,3.2 2.9,333.9 		"/>
		<polygon fill="#007390" points="55.3,333.9 319.1,58 319.1,57.3 54.7,333.9 		"/>
		<polygon fill="#007390" points="57.7,333.9 319.1,60.5 319.1,59.9 57.1,333.9 		"/>
		<polygon fill="#007390" points="52.8,333.9 319.1,55.4 319.1,54.7 52.2,333.9 		"/>
		<polygon fill="#007390" points="60.2,333.9 319.1,63.1 319.1,62.5 59.6,333.9 		"/>
		<polygon fill="#007390" points="62.7,333.9 319.1,65.7 319.1,65.1 62.1,333.9 		"/>
		<polygon fill="#007390" points="67.6,333.9 319.1,70.8 319.1,70.2 67,333.9 		"/>
		<polygon fill="#007390" points="50.4,333.9 319.1,52.8 319.1,52.2 49.7,333.9 		"/>
		<polygon fill="#007390" points="65.1,333.9 319.1,68.3 319.1,67.6 64.5,333.9 		"/>
		<polygon fill="#007390" points="43,333.9 319.1,45.1 319.1,44.4 42.4,333.9 		"/>
		<polygon fill="#007390" points="35.6,333.9 319.1,37.4 319.1,36.7 35,333.9 		"/>
		<polygon fill="#007390" points="38,333.9 319.1,39.9 319.1,39.3 37.4,333.9 		"/>
		<polygon fill="#007390" points="33.1,333.9 319.1,34.8 319.1,34.1 32.5,333.9 		"/>
		<polygon fill="#007390" points="45.4,333.9 319.1,47.7 319.1,47 44.8,333.9 		"/>
		<polygon fill="#007390" points="47.9,333.9 319.1,50.2 319.1,49.6 47.3,333.9 		"/>
		<polygon fill="#007390" points="30.7,333.9 319.1,32.2 319.1,31.6 30,333.9 		"/>
		<polygon fill="#007390" points="40.5,333.9 319.1,42.5 319.1,41.9 39.9,333.9 		"/>
		<polygon fill="#007390" points="193.2,333.9 319.1,202.2 319.1,201.6 192.6,333.9 		"/>
		<polygon fill="#007390" points="264.6,333.9 319.1,276.9 319.1,276.3 264,333.9 		"/>
		<polygon fill="#007390" points="267.1,333.9 319.1,279.5 319.1,278.9 266.5,333.9 		"/>
		<polygon fill="#007390" points="269.5,333.9 319.1,282.1 319.1,281.4 268.9,333.9 		"/>
		<polygon fill="#007390" points="262.1,333.9 319.1,274.3 319.1,273.7 261.5,333.9 		"/>
		<polygon fill="#007390" points="259.7,333.9 319.1,271.8 319.1,271.1 259.1,333.9 		"/>
		<polygon fill="#007390" points="276.9,333.9 319.1,289.8 319.1,289.2 276.3,333.9 		"/>
		<polygon fill="#007390" points="156.3,333.9 319.1,163.6 319.1,162.9 155.6,333.9 		"/>
		<polygon fill="#007390" points="272,333.9 319.1,284.6 319.1,284 271.4,333.9 		"/>
		<polygon fill="#007390" points="244.9,333.9 319.1,256.3 319.1,255.7 244.3,333.9 		"/>
		<polygon fill="#007390" points="247.4,333.9 319.1,258.9 319.1,258.2 246.8,333.9 		"/>
		<polygon fill="#007390" points="257.2,333.9 319.1,269.2 319.1,268.5 256.6,333.9 		"/>
		<polygon fill="#007390" points="242.4,333.9 319.1,253.7 319.1,253.1 241.8,333.9 		"/>
		<polygon fill="#007390" points="279.4,333.9 319.1,292.4 319.1,291.7 278.8,333.9 		"/>
		<polygon fill="#007390" points="254.8,333.9 319.1,266.6 319.1,266 254.1,333.9 		"/>
		<polygon fill="#007390" points="252.3,333.9 319.1,264 319.1,263.4 251.7,333.9 		"/>
		<polygon fill="#007390" points="249.8,333.9 319.1,261.5 319.1,260.8 249.2,333.9 		"/>
		<polygon fill="#007390" points="313.9,333.9 319.1,328.4 319.1,327.8 313.2,333.9 		"/>
		<polygon fill="#007390" points="306.5,333.9 319.1,320.7 319.1,320.1 305.9,333.9 		"/>
		<polygon fill="#007390" points="308.9,333.9 319.1,323.3 319.1,322.6 308.3,333.9 		"/>
		<polygon fill="#007390" points="281.8,333.9 319.1,294.9 319.1,294.3 281.2,333.9 		"/>
		<polygon fill="#007390" points="301.5,333.9 319.1,315.6 319.1,314.9 300.9,333.9 		"/>
		<polygon fill="#007390" points="311.4,333.9 319.1,325.9 319.1,325.2 310.8,333.9 		"/>
		<polygon fill="#007390" points="318.8,333.9 319.1,333.6 319.1,332.9 318.2,333.9 		"/>
		<polygon fill="#007390" points="240,333.9 319.1,251.2 319.1,250.5 239.4,333.9 		"/>
		<polygon fill="#007390" points="316.3,333.9 319.1,331 319.1,330.4 315.7,333.9 		"/>
		<polygon fill="#007390" points="304,333.9 319.1,318.1 319.1,317.5 303.4,333.9 		"/>
		<polygon fill="#007390" points="286.8,333.9 319.1,300.1 319.1,299.5 286.2,333.9 		"/>
		<polygon fill="#007390" points="299.1,333.9 319.1,313 319.1,312.3 298.5,333.9 		"/>
		<polygon fill="#007390" points="284.3,333.9 319.1,297.5 319.1,296.9 283.7,333.9 		"/>
		<polygon fill="#007390" points="289.2,333.9 319.1,302.7 319.1,302 288.6,333.9 		"/>
		<polygon fill="#007390" points="296.6,333.9 319.1,310.4 319.1,309.8 296,333.9 		"/>
		<polygon fill="#007390" points="291.7,333.9 319.1,305.3 319.1,304.6 291.1,333.9 		"/>
		<polygon fill="#007390" points="294.2,333.9 319.1,307.8 319.1,307.2 293.5,333.9 		"/>
		<polygon fill="#007390" points="274.5,333.9 319.1,287.2 319.1,286.6 273.8,333.9 		"/>
		<polygon fill="#007390" points="180.9,333.9 319.1,189.3 319.1,188.7 180.3,333.9 		"/>
		<polygon fill="#007390" points="183.3,333.9 319.1,191.9 319.1,191.3 182.7,333.9 		"/>
		<polygon fill="#007390" points="185.8,333.9 319.1,194.5 319.1,193.8 185.2,333.9 		"/>
		<polygon fill="#007390" points="178.4,333.9 319.1,186.8 319.1,186.1 177.8,333.9 		"/>
		<polygon fill="#007390" points="237.5,333.9 319.1,248.6 319.1,247.9 236.9,333.9 		"/>
		<polygon fill="#007390" points="-11.2,333.9 319.1,-11.6 319.1,-12.2 -11.8,333.9 		"/>
		<polygon fill="#007390" points="188.3,333.9 319.1,197.1 319.1,196.4 187.6,333.9 		"/>
		<polygon fill="#007390" points="190.7,333.9 319.1,199.6 319.1,199 190.1,333.9 		"/>
		<polygon fill="#007390" points="168.6,333.9 319.1,176.5 319.1,175.8 167.9,333.9 		"/>
		<polygon fill="#007390" points="163.6,333.9 319.1,171.3 319.1,170.7 163,333.9 		"/>
		<polygon fill="#007390" points="161.2,333.9 319.1,168.7 319.1,168.1 160.6,333.9 		"/>
		<polygon fill="#007390" points="158.7,333.9 319.1,166.2 319.1,165.5 158.1,333.9 		"/>
		<polygon fill="#007390" points="195.7,333.9 319.1,204.8 319.1,204.1 195,333.9 		"/>
		<polygon fill="#007390" points="171,333.9 319.1,179 319.1,178.4 170.4,333.9 		"/>
		<polygon fill="#007390" points="173.5,333.9 319.1,181.6 319.1,181 172.9,333.9 		"/>
		<polygon fill="#007390" points="166.1,333.9 319.1,173.9 319.1,173.2 165.5,333.9 		"/>
		<polygon fill="#007390" points="176,333.9 319.1,184.2 319.1,183.5 175.3,333.9 		"/>
		<polygon fill="#007390" points="225.2,333.9 319.1,235.7 319.1,235.1 224.6,333.9 		"/>
		<polygon fill="#007390" points="217.8,333.9 319.1,228 319.1,227.3 217.2,333.9 		"/>
		<polygon fill="#007390" points="222.7,333.9 319.1,233.1 319.1,232.5 222.1,333.9 		"/>
		<polygon fill="#007390" points="198.1,333.9 319.1,207.4 319.1,206.7 197.5,333.9 		"/>
		<polygon fill="#007390" points="227.7,333.9 319.1,238.3 319.1,237.6 227.1,333.9 		"/>
		<polygon fill="#007390" points="235.1,333.9 319.1,246 319.1,245.4 234.4,333.9 		"/>
		<polygon fill="#007390" points="230.1,333.9 319.1,240.9 319.1,240.2 229.5,333.9 		"/>
		<polygon fill="#007390" points="232.6,333.9 319.1,243.4 319.1,242.8 232,333.9 		"/>
		<polygon fill="#007390" points="220.3,333.9 319.1,230.6 319.1,229.9 219.7,333.9 		"/>
		<polygon fill="#007390" points="203,333.9 319.1,212.5 319.1,211.9 202.4,333.9 		"/>
		<polygon fill="#007390" points="205.5,333.9 319.1,215.1 319.1,214.5 204.9,333.9 		"/>
		<polygon fill="#007390" points="200.6,333.9 319.1,209.9 319.1,209.3 200,333.9 		"/>
		<polygon fill="#007390" points="208,333.9 319.1,217.7 319.1,217 207.4,333.9 		"/>
		<polygon fill="#007390" points="212.9,333.9 319.1,222.8 319.1,222.2 212.3,333.9 		"/>
		<polygon fill="#007390" points="215.4,333.9 319.1,225.4 319.1,224.8 214.7,333.9 		"/>
		<polygon fill="#007390" points="210.4,333.9 319.1,220.2 319.1,219.6 209.8,333.9 		"/>
		<polygon fill="#007390" points="-13.1,153 146.1,-13.5 145.5,-13.5 -13.1,152.3 		"/>
		<polygon fill="#007390" points="-13.1,104 99.3,-13.5 98.7,-13.5 -13.1,103.4 		"/>
		<polygon fill="#007390" points="-13.1,101.4 96.8,-13.5 96.2,-13.5 -13.1,100.8 		"/>
		<polygon fill="#007390" points="-13.1,98.9 94.4,-13.5 93.8,-13.5 -13.1,98.2 		"/>
		<polygon fill="#007390" points="-13.1,73.1 69.8,-13.5 69.1,-13.5 -13.1,72.5 		"/>
		<polygon fill="#007390" points="-13.1,109.2 104.2,-13.5 103.6,-13.5 -13.1,108.5 		"/>
		<polygon fill="#007390" points="-13.1,111.7 106.7,-13.5 106.1,-13.5 -13.1,111.1 		"/>
		<polygon fill="#007390" points="-13.1,106.6 101.8,-13.5 101.1,-13.5 -13.1,105.9 		"/>
		<polygon fill="#007390" points="-13.1,93.7 89.5,-13.5 88.8,-13.5 -13.1,93.1 		"/>
		<polygon fill="#007390" points="-13.1,80.8 77.1,-13.5 76.5,-13.5 -13.1,80.2 		"/>
		<polygon fill="#007390" points="-13.1,114.3 109.2,-13.5 108.5,-13.5 -13.1,113.7 		"/>
		<polygon fill="#007390" points="-13.1,78.3 74.7,-13.5 74.1,-13.5 -13.1,77.6 		"/>
		<polygon fill="#007390" points="-13.1,91.1 87,-13.5 86.4,-13.5 -13.1,90.5 		"/>
		<polygon fill="#007390" points="-13.1,75.7 72.2,-13.5 71.6,-13.5 -13.1,75 		"/>
		<polygon fill="#007390" points="-13.1,88.6 84.5,-13.5 83.9,-13.5 -13.1,87.9 		"/>
		<polygon fill="#007390" points="-13.1,83.4 79.6,-13.5 79,-13.5 -13.1,82.8 		"/>
		<polygon fill="#007390" points="-13.1,86 82.1,-13.5 81.4,-13.5 -13.1,85.3 		"/>
		<polygon fill="#007390" points="-13.1,96.3 91.9,-13.5 91.3,-13.5 -13.1,95.6 		"/>
		<polygon fill="#007390" points="-13.1,145.2 138.7,-13.5 138.1,-13.5 -13.1,144.6 		"/>
		<polygon fill="#007390" points="-13.1,147.8 141.2,-13.5 140.6,-13.5 -13.1,147.2 		"/>
		<polygon fill="#007390" points="-13.1,142.7 136.2,-13.5 135.6,-13.5 -13.1,142 		"/>
		<polygon fill="#007390" points="-13.1,140.1 133.8,-13.5 133.2,-13.5 -13.1,139.4 		"/>
		<polygon fill="#007390" points="-13.1,155.5 148.6,-13.5 147.9,-13.5 -13.1,154.9 		"/>
		<polygon fill="#007390" points="-13.1,150.4 143.6,-13.5 143,-13.5 -13.1,149.7 		"/>
		<polygon fill="#007390" points="-13.1,158.1 151,-13.5 150.4,-13.5 -13.1,157.5 		"/>
		<polygon fill="#007390" points="-13.1,137.5 131.3,-13.5 130.7,-13.5 -13.1,136.9 		"/>
		<polygon fill="#007390" points="-13.1,116.9 111.6,-13.5 111,-13.5 -13.1,116.3 		"/>
		<polygon fill="#007390" points="-13.1,124.6 119,-13.5 118.4,-13.5 -13.1,124 		"/>
		<polygon fill="#007390" points="-13.1,122 116.5,-13.5 115.9,-13.5 -13.1,121.4 		"/>
		<polygon fill="#007390" points="-13.1,134.9 128.9,-13.5 128.2,-13.5 -13.1,134.3 		"/>
		<polygon fill="#007390" points="-13.1,160.7 153.5,-13.5 152.9,-13.5 -13.1,160 		"/>
		<polygon fill="#007390" points="-13.1,132.4 126.4,-13.5 125.8,-13.5 -13.1,131.7 		"/>
		<polygon fill="#007390" points="-13.1,127.2 121.5,-13.5 120.9,-13.5 -13.1,126.6 		"/>
		<polygon fill="#007390" points="-13.1,129.8 123.9,-13.5 123.3,-13.5 -13.1,129.1 		"/>
		<polygon fill="#007390" points="-13.1,119.5 114.1,-13.5 113.5,-13.5 -13.1,118.8 		"/>
		<polygon fill="#007390" points="-13.1,13.9 13.1,-13.5 12.5,-13.5 -13.1,13.2 		"/>
		<polygon fill="#007390" points="-13.1,16.4 15.6,-13.5 15,-13.5 -13.1,15.8 		"/>
		<polygon fill="#007390" points="-13.1,11.3 10.6,-13.5 10,-13.5 -13.1,10.6 		"/>
		<polygon fill="#007390" points="-13.1,8.7 8.2,-13.5 7.6,-13.5 -13.1,8.1 		"/>
		<polygon fill="#007390" points="-13.1,26.7 25.4,-13.5 24.8,-13.5 -13.1,26.1 		"/>
		<polygon fill="#007390" points="-13.1,19 18,-13.5 17.4,-13.5 -13.1,18.4 		"/>
		<polygon fill="#007390" points="-13.1,24.2 23,-13.5 22.3,-13.5 -13.1,23.5 		"/>
		<polygon fill="#007390" points="-13.1,21.6 20.5,-13.5 19.9,-13.5 -13.1,20.9 		"/>
		<polygon fill="#007390" points="-13.1,6.1 5.7,-13.5 5.1,-13.5 -13.1,5.5 		"/>
		<polygon fill="#007390" points="-13.1,-6.7 -6.6,-13.5 -7.2,-13.5 -13.1,-7.4 		"/>
		<polygon fill="#007390" points="-13.1,-9.3 -9.1,-13.5 -9.7,-13.5 -13.1,-10 		"/>
		<polygon fill="#007390" points="-13.1,-11.9 -11.5,-13.5 -12.1,-13.5 -13.1,-12.5 		"/>
		<polygon fill="#007390" points="-13.1,1 0.8,-13.5 0.2,-13.5 -13.1,0.3 		"/>
		<polygon fill="#007390" points="-13.1,-4.2 -4.1,-13.5 -4.7,-13.5 -13.1,-4.8 		"/>
		<polygon fill="#007390" points="-13.1,3.6 3.3,-13.5 2.6,-13.5 -13.1,2.9 		"/>
		<polygon fill="#007390" points="-13.1,-1.6 -1.7,-13.5 -2.3,-13.5 -13.1,-2.2 		"/>
		<polygon fill="#007390" points="-13.1,44.8 42.7,-13.5 42,-13.5 -13.1,44.1 		"/>
		<polygon fill="#007390" points="-13.1,55.1 52.5,-13.5 51.9,-13.5 -13.1,54.4 		"/>
		<polygon fill="#007390" points="-13.1,60.2 57.4,-13.5 56.8,-13.5 -13.1,59.6 		"/>
		<polygon fill="#007390" points="-13.1,29.3 27.9,-13.5 27.3,-13.5 -13.1,28.7 		"/>
		<polygon fill="#007390" points="-13.1,52.5 50,-13.5 49.4,-13.5 -13.1,51.9 		"/>
		<polygon fill="#007390" points="-13.1,49.9 47.6,-13.5 47,-13.5 -13.1,49.3 		"/>
		<polygon fill="#007390" points="-13.1,68 64.8,-13.5 64.2,-13.5 -13.1,67.3 		"/>
		<polygon fill="#007390" points="-13.1,65.4 62.4,-13.5 61.7,-13.5 -13.1,64.7 		"/>
		<polygon fill="#007390" points="-13.1,62.8 59.9,-13.5 59.3,-13.5 -13.1,62.2 		"/>
		<polygon fill="#007390" points="-13.1,57.6 55,-13.5 54.4,-13.5 -13.1,57 		"/>
		<polygon fill="#007390" points="-13.1,37 35.3,-13.5 34.7,-13.5 -13.1,36.4 		"/>
		<polygon fill="#007390" points="-13.1,333.3 318.5,-13.5 317.9,-13.5 -13.1,332.6 		"/>
		<polygon fill="#007390" points="-13.1,31.9 30.3,-13.5 29.7,-13.5 -13.1,31.2 		"/>
		<polygon fill="#007390" points="-13.1,42.2 40.2,-13.5 39.6,-13.5 -13.1,41.5 		"/>
		<polygon fill="#007390" points="-13.1,70.5 67.3,-13.5 66.7,-13.5 -13.1,69.9 		"/>
		<polygon fill="#007390" points="-13.1,39.6 37.7,-13.5 37.1,-13.5 -13.1,39 		"/>
		<polygon fill="#007390" points="-13.1,47.3 45.1,-13.5 44.5,-13.5 -13.1,46.7 		"/>
		<polygon fill="#007390" points="-13.1,34.5 32.8,-13.5 32.2,-13.5 -13.1,33.8 		"/>
		<polygon fill="#007390" points="-13.1,268.9 256.9,-13.5 256.3,-13.5 -13.1,268.2 		"/>
		<polygon fill="#007390" points="-13.1,289.5 276.6,-13.5 276,-13.5 -13.1,288.8 		"/>
		<polygon fill="#007390" points="-13.1,274 261.8,-13.5 261.2,-13.5 -13.1,273.4 		"/>
		<polygon fill="#007390" points="-13.1,163.3 155.9,-13.5 155.3,-13.5 -13.1,162.6 		"/>
		<polygon fill="#007390" points="-13.1,276.6 264.3,-13.5 263.7,-13.5 -13.1,276 		"/>
		<polygon fill="#007390" points="-13.1,286.9 274.2,-13.5 273.5,-13.5 -13.1,286.3 		"/>
		<polygon fill="#007390" points="-13.1,284.3 271.7,-13.5 271.1,-13.5 -13.1,283.7 		"/>
		<polygon fill="#007390" points="-13.1,281.8 269.2,-13.5 268.6,-13.5 -13.1,281.1 		"/>
		<polygon fill="#007390" points="-13.1,279.2 266.8,-13.5 266.1,-13.5 -13.1,278.5 		"/>
		<polygon fill="#007390" points="-13.1,256 244.6,-13.5 244,-13.5 -13.1,255.3 		"/>
		<polygon fill="#007390" points="-13.1,266.3 254.5,-13.5 253.8,-13.5 -13.1,265.7 		"/>
		<polygon fill="#007390" points="-13.1,250.8 239.7,-13.5 239.1,-13.5 -13.1,250.2 		"/>
		<polygon fill="#007390" points="-13.1,253.4 242.1,-13.5 241.5,-13.5 -13.1,252.8 		"/>
		<polygon fill="#007390" points="-13.1,263.7 252,-13.5 251.4,-13.5 -13.1,263.1 		"/>
		<polygon fill="#007390" points="-13.1,261.1 249.5,-13.5 248.9,-13.5 -13.1,260.5 		"/>
		<polygon fill="#007390" points="-13.1,258.6 247.1,-13.5 246.4,-13.5 -13.1,257.9 		"/>
		<polygon fill="#007390" points="-13.1,294.6 281.5,-13.5 280.9,-13.5 -13.1,294 		"/>
		<polygon fill="#007390" points="-13.1,320.4 306.2,-13.5 305.6,-13.5 -13.1,319.7 		"/>
		<polygon fill="#007390" points="-13.1,323 308.6,-13.5 308,-13.5 -13.1,322.3 		"/>
		<polygon fill="#007390" points="-13.1,317.8 303.7,-13.5 303.1,-13.5 -13.1,317.2 		"/>
		<polygon fill="#007390" points="-13.1,312.7 298.8,-13.5 298.2,-13.5 -13.1,312 		"/>
		<polygon fill="#007390" points="-13.1,315.2 301.2,-13.5 300.6,-13.5 -13.1,314.6 		"/>
		<polygon fill="#007390" points="-13.1,325.5 311.1,-13.5 310.5,-13.5 -13.1,324.9 		"/>
		<polygon fill="#007390" points="-13.1,330.7 316,-13.5 315.4,-13.5 -13.1,330 		"/>
		<polygon fill="#007390" points="-13.1,328.1 313.6,-13.5 312.9,-13.5 -13.1,327.5 		"/>
		<polygon fill="#007390" points="-13.1,292.1 279.1,-13.5 278.5,-13.5 -13.1,291.4 		"/>
		<polygon fill="#007390" points="-13.1,297.2 284,-13.5 283.4,-13.5 -13.1,296.6 		"/>
		<polygon fill="#007390" points="-13.1,248.3 237.2,-13.5 236.6,-13.5 -13.1,247.6 		"/>
		<polygon fill="#007390" points="-13.1,299.8 286.5,-13.5 285.9,-13.5 -13.1,299.1 		"/>
		<polygon fill="#007390" points="-13.1,302.4 288.9,-13.5 288.3,-13.5 -13.1,301.7 		"/>
		<polygon fill="#007390" points="-13.1,307.5 293.9,-13.5 293.2,-13.5 -13.1,306.9 		"/>
		<polygon fill="#007390" points="-13.1,310.1 296.3,-13.5 295.7,-13.5 -13.1,309.4 		"/>
		<polygon fill="#007390" points="-13.1,304.9 291.4,-13.5 290.8,-13.5 -13.1,304.3 		"/>
		<polygon fill="#007390" points="-13.1,271.4 259.4,-13.5 258.8,-13.5 -13.1,270.8 		"/>
		<polygon fill="#007390" points="-13.1,191.6 183,-13.5 182.4,-13.5 -13.1,191 		"/>
		<polygon fill="#007390" points="-13.1,189 180.6,-13.5 180,-13.5 -13.1,188.4 		"/>
		<polygon fill="#007390" points="-13.1,194.2 185.5,-13.5 184.9,-13.5 -13.1,193.5 		"/>
		<polygon fill="#007390" points="-13.1,183.9 175.6,-13.5 175,-13.5 -13.1,183.2 		"/>
		<polygon fill="#007390" points="-13.1,186.4 178.1,-13.5 177.5,-13.5 -13.1,185.8 		"/>
		<polygon fill="#007390" points="-13.1,196.7 188,-13.5 187.3,-13.5 -13.1,196.1 		"/>
		<polygon fill="#007390" points="-13.1,201.9 192.9,-13.5 192.3,-13.5 -13.1,201.3 		"/>
		<polygon fill="#007390" points="-13.1,199.3 190.4,-13.5 189.8,-13.5 -13.1,198.7 		"/>
		<polygon fill="#007390" points="-13.1,181.3 173.2,-13.5 172.6,-13.5 -13.1,180.6 		"/>
		<polygon fill="#007390" points="-13.1,171 163.3,-13.5 162.7,-13.5 -13.1,170.3 		"/>
		<polygon fill="#007390" points="-13.1,168.4 160.9,-13.5 160.3,-13.5 -13.1,167.8 		"/>
		<polygon fill="#007390" points="-13.1,165.8 158.4,-13.5 157.8,-13.5 -13.1,165.2 		"/>
		<polygon fill="#007390" points="-13.1,176.1 168.3,-13.5 167.6,-13.5 -13.1,175.5 		"/>
		<polygon fill="#007390" points="-13.1,178.7 170.7,-13.5 170.1,-13.5 -13.1,178.1 		"/>
		<polygon fill="#007390" points="-13.1,173.6 165.8,-13.5 165.2,-13.5 -13.1,172.9 		"/>
		<polygon fill="#007390" points="-13.1,204.5 195.3,-13.5 194.7,-13.5 -13.1,203.8 		"/>
		<polygon fill="#007390" points="-13.1,209.6 200.3,-13.5 199.7,-13.5 -13.1,209 		"/>
		<polygon fill="#007390" points="-13.1,232.8 222.4,-13.5 221.8,-13.5 -13.1,232.2 		"/>
		<polygon fill="#007390" points="-13.1,235.4 224.9,-13.5 224.3,-13.5 -13.1,234.7 		"/>
		<polygon fill="#007390" points="-13.1,230.2 220,-13.5 219.4,-13.5 -13.1,229.6 		"/>
		<polygon fill="#007390" points="-13.1,243.1 232.3,-13.5 231.7,-13.5 -13.1,242.5 		"/>
		<polygon fill="#007390" points="-13.1,227.7 217.5,-13.5 216.9,-13.5 -13.1,227 		"/>
		<polygon fill="#007390" points="-13.1,240.5 229.8,-13.5 229.2,-13.5 -13.1,239.9 		"/>
		<polygon fill="#007390" points="-13.1,238 227.4,-13.5 226.7,-13.5 -13.1,237.3 		"/>
		<polygon fill="#007390" points="-13.1,207.1 197.8,-13.5 197.2,-13.5 -13.1,206.4 		"/>
		<polygon fill="#007390" points="-13.1,214.8 205.2,-13.5 204.6,-13.5 -13.1,214.1 		"/>
		<polygon fill="#007390" points="-13.1,225.1 215,-13.5 214.4,-13.5 -13.1,224.4 		"/>
		<polygon fill="#007390" points="-13.1,245.7 234.8,-13.5 234.1,-13.5 -13.1,245 		"/>
		<polygon fill="#007390" points="-13.1,212.2 202.7,-13.5 202.1,-13.5 -13.1,211.6 		"/>
		<polygon fill="#007390" points="-13.1,217.4 207.7,-13.5 207,-13.5 -13.1,216.7 		"/>
		<polygon fill="#007390" points="-13.1,222.5 212.6,-13.5 212,-13.5 -13.1,221.9 		"/>
		<polygon fill="#007390" points="-13.1,219.9 210.1,-13.5 209.5,-13.5 -13.1,219.3 		"/>
	</g>
</g>
</svg>
